<svg width="1938" height="1031" viewBox="0 0 1938 1031" fill="none" xmlns="http://www.w3.org/2000/svg">
<path d="M740.014 89.5335C740.375 76.7314 739.545 64.2533 741.332 52.1619C745.77 22.132 774.106 -0.614975 804.72 0.0126795C836.805 0.670486 863.622 24.4664 867.306 55.6214C867.735 59.2478 867.988 62.9184 867.989 66.5687C868.026 158.56 868.005 250.551 868.028 342.542C868.033 364.124 872.353 384.646 884.843 402.631C904.192 430.492 931.846 442.836 965.035 443.971C988.245 444.766 1010.16 440.188 1029.12 425.994C1055.53 406.209 1067.74 379.033 1068.08 346.556C1068.5 305.897 1068.1 265.231 1068.21 224.569C1068.3 192.27 1089.46 166.569 1120.83 160.299C1158.65 152.738 1195.91 181.354 1196.82 220.155C1197.79 261.458 1197.19 302.802 1197.02 344.128C1196.93 365.019 1194.5 385.736 1188.25 405.702C1162.31 488.474 1107.15 540.653 1022.39 559.208C969.429 570.801 916.736 566.903 867.135 543.514C799.483 511.614 758.337 458.208 744.266 384.657C741.407 369.716 740.266 354.243 740.196 339.006C739.813 256.017 740.014 173.025 740.014 89.5335Z" fill="#E01705"/>
<path d="M334.183 812.554C337.056 810.871 339.597 809.341 342.117 807.823C337.551 799.913 332.639 792.413 328.726 784.422C319.677 765.938 316.776 746.662 324.257 726.933C331.648 707.444 346.759 696.392 366.364 691.382C390.205 685.29 413.724 686.204 435.637 698.396C468.247 716.54 474.005 758.076 448.215 785.162C436.657 797.3 422.579 805.731 407.995 813.507C406.412 814.351 404.855 815.242 402.479 816.557C417.383 832.079 431.967 847.267 447.026 862.95C455.864 849.156 461.774 834.837 466.999 819.331C470.536 821.96 473.789 824.375 477.037 826.795C484.782 832.564 492.438 838.458 500.316 844.041C502.991 845.936 503.629 847.627 502.138 850.561C494.859 864.891 487.698 879.281 480.151 894.335C492.324 906.082 505.358 918.658 517.961 930.819C508.228 940.568 498.635 950.176 487.8 961.029C476.671 948.863 464.881 935.975 454.171 924.267C440.807 931.922 429.758 939.95 417.477 944.957C385.322 958.067 353.256 957.222 323.214 938.608C286.101 915.612 278.1 865.12 306.733 834.538C314.586 826.15 324.749 819.925 334.183 812.554ZM359.634 907.715C383.084 916.787 402.764 908.778 421.283 894.452C402.475 874.91 383.947 855.659 365.255 836.238C351.044 845.989 336.85 855.66 337.28 875.383C337.609 890.437 345.456 900.991 359.634 907.715ZM405.359 772.204C412.912 765.651 418.215 757.79 418.977 747.553C419.96 734.34 411.34 724.166 397.932 722.408C381.829 720.296 368.729 728.506 366.165 742.764C362.986 760.441 371.567 774.446 380.946 789.165C389.279 783.425 397.062 778.064 405.359 772.204Z" fill="#E01806"/>
<path d="M206.102 862.345C203.588 882.585 197.807 901.24 185.738 917.359C164.337 945.942 134.825 957.378 99.9523 956.651C75.6255 956.144 53.2013 949.715 34.6292 933.283C14.4547 915.434 4.60329 892.178 1.27282 865.946C0.249059 857.883 0.081579 849.671 0.064825 841.526C-0.03869 791.198 0.012808 740.869 0.012823 690.541C0.012823 688.731 0.0128383 686.921 0.0128383 684.823C16.7031 684.823 33.123 684.823 50.1814 684.823C50.1814 686.502 50.1814 688.262 50.1814 690.022C50.1814 742.184 50.1669 794.346 50.1927 846.507C50.1985 858.09 51.6758 869.441 56.605 880.072C65.4187 899.08 83.4807 909.478 104.404 908.972C135.102 908.23 153.139 887.628 156.1 857.508C156.555 852.879 156.63 848.199 156.634 843.543C156.669 792.548 156.656 741.553 156.656 690.558C156.656 688.749 156.656 686.94 156.656 684.834C173.437 684.834 189.857 684.834 207.019 684.834C207.019 686.295 207.019 687.879 207.019 689.463C207.019 742.458 207.04 795.453 206.981 848.448C206.976 852.932 206.437 857.415 206.102 862.345Z" fill="#E01806"/>
<path d="M1091.96 951.409C1068.61 959.304 1046.03 959.676 1024.9 946.343C1018.86 942.537 1014.23 936.501 1008.99 931.456C1008.01 930.517 1007.18 929.428 1006.37 928.501C1007 962.649 1007.63 996.429 1008.27 1030.64C991.413 1030.64 975.372 1030.64 958.992 1030.64C958.992 943.419 958.992 856.201 958.992 768.758C974.055 768.758 989 768.758 1004.63 768.758C1004.63 775.905 1004.63 783.096 1004.63 791.395C1006.48 790.165 1007.6 789.785 1008.15 789.007C1023.87 766.837 1046.28 760.133 1071.78 763.219C1112.08 768.094 1143.52 800.421 1149.15 841.373C1153.19 870.71 1148.51 898.089 1130.34 922.284C1120.4 935.518 1107.61 945.039 1091.96 951.409ZM1090.43 893.239C1099.83 881.156 1102.61 867.393 1101.24 852.391C1098.26 819.641 1064.22 798.839 1034.22 811.577C1015.04 819.718 1004 838.807 1004.71 862.586C1005.34 883.93 1017.92 901.957 1036.9 908.714C1056.13 915.561 1075.83 910.037 1090.43 893.239Z" fill="#E01806"/>
<path d="M763.041 799.66C732.315 766.509 741.853 714.835 779.376 692.121C813.148 671.678 862.384 674.464 891.544 698.745C903.22 708.467 910.989 720.809 916.291 735.321C901.423 741.566 886.779 747.717 871.958 753.942C867.726 743.615 861.986 734.626 852.222 729.84C836.697 722.23 820.786 722.897 805.904 731.712C790.31 740.949 789.354 760.544 803.518 771.977C814.192 780.594 826.898 785.21 839.691 789.446C856.28 794.938 872.844 800.469 887.775 809.787C915.659 827.189 927.87 852.587 924.701 885.06C921.419 918.696 901.427 939.663 870.74 950.19C835.045 962.435 800.737 958.868 770.081 935.345C752.222 921.641 741.16 903.114 734.715 881.097C750.461 874.883 765.996 868.752 781.684 862.561C783.506 867.251 785.016 871.988 787.134 876.437C794.77 892.481 805.706 904.944 824.271 908.029C837.071 910.156 849.507 908.802 860.832 901.818C876.423 892.203 880.025 870.635 867.317 857.396C861.486 851.321 853.903 846.333 846.227 842.755C833.009 836.592 819.141 831.799 805.465 826.648C789.532 820.646 775.087 812.384 763.041 799.66Z" fill="#E01806"/>
<path d="M1615.23 775.535C1648.92 756.013 1693.07 758.413 1722.2 781.623C1740.92 796.542 1750.05 816.955 1753.06 840.172C1754.35 850.138 1754.11 860.301 1754.59 870.944C1708.03 870.944 1662.8 870.944 1617.59 870.944C1616.96 887.491 1631.41 905.03 1646.56 910.012C1668.99 917.389 1694.16 914.357 1710.98 886.669C1724.27 893.244 1737.62 899.841 1751.45 906.681C1746.45 916.193 1739.94 924.227 1732.36 931.415C1709.38 953.214 1681.58 959.681 1651.08 955.684C1609.45 950.229 1579.49 922.74 1570.73 881.883C1561.84 840.408 1578.15 797.785 1615.23 775.535ZM1682.68 836.078C1690.73 836.078 1698.79 836.078 1706.98 836.078C1702.72 814.156 1683.68 801.078 1659.82 802.63C1636.41 804.153 1621.37 823.487 1620.22 836.078C1640.72 836.078 1661.2 836.078 1682.68 836.078Z" fill="#E01806"/>
<path d="M1183.05 858.442C1198.24 840.3 1218.23 833.592 1240.69 832.551C1258.64 831.719 1276.18 833.99 1293.05 840.676C1295.97 823.476 1284.56 807.761 1265.99 803.708C1247.11 799.587 1230.36 803.991 1216.4 817.729C1214.63 819.473 1212.94 821.298 1210.9 823.406C1199.17 815.392 1187.57 807.464 1175.23 799.031C1179.07 794.995 1182.46 791.009 1186.27 787.484C1206.8 768.508 1231.67 761.512 1258.91 762.77C1270.59 763.31 1282.55 764.942 1293.73 768.28C1322.12 776.761 1339.63 799.37 1341.04 829.026C1342.09 851.298 1341.83 873.635 1341.99 895.945C1342.13 913.92 1342.02 931.898 1342.02 950.288C1325.93 950.288 1310.06 950.288 1293.72 950.288C1293.72 944.23 1293.72 938.128 1293.72 930.518C1291.43 932.102 1289.89 932.755 1288.93 933.898C1260.61 967.58 1215.12 959.291 1192.65 940.889C1168.24 920.9 1163.83 884.767 1183.05 858.442ZM1227.58 910.647C1240.74 920.98 1255.05 920.801 1269.39 914.176C1283.92 907.457 1292.08 895.621 1293.38 879.492C1293.48 878.262 1291.97 876.115 1290.76 875.694C1283.56 873.199 1276.37 870.293 1268.93 869.029C1257.04 867.013 1245 866.904 1233.83 872.713C1218.59 880.635 1215.47 898.16 1227.58 910.647Z" fill="#E01806"/>
<path d="M1851.19 875.498C1840.49 872.764 1830.03 870.635 1819.98 867.276C1808.92 863.582 1799.44 857 1792.19 847.689C1776.21 827.157 1779.74 797.747 1800.29 780.55C1815.4 767.898 1833.46 763.29 1852.64 762.683C1875.27 761.966 1896.74 766.114 1915.11 780.494C1923.39 786.97 1929.17 795.416 1933.47 805.52C1919.47 811.233 1905.68 816.861 1891.31 822.725C1886.59 812.847 1878.55 806.831 1868.1 804.023C1857.8 801.256 1847.67 801.394 1838.03 806.525C1833.76 808.801 1830.27 811.892 1830.22 817.23C1830.16 822.857 1833.69 826.416 1838.43 828.032C1848.78 831.562 1859.38 834.348 1869.83 837.619C1882.32 841.53 1895.36 844.342 1907.07 849.933C1927.04 859.474 1937.85 876.09 1937.07 898.755C1936.45 916.852 1927.02 930.384 1912.86 940.946C1881.78 964.149 1821.35 963.19 1791.63 930.136C1785.06 922.83 1780.13 914.049 1773.88 905.142C1789.68 898.364 1803.97 892.233 1818.76 885.887C1819.61 887.388 1820.4 888.762 1821.16 890.158C1831.62 909.418 1851.79 918.044 1872.82 912.172C1874.88 911.596 1876.91 910.745 1878.81 909.748C1883.85 907.099 1888.15 903.74 1888.16 897.324C1888.17 890.661 1884.4 886.058 1878.66 883.918C1869.83 880.626 1860.64 878.298 1851.19 875.498Z" fill="#E01806"/>
<path d="M1432.69 820.032C1409.55 840.731 1410.72 890.681 1443.16 906.581C1465.86 917.71 1491.88 910.157 1504.58 888.297C1505.24 887.165 1505.98 886.081 1506.77 884.822C1521.58 891.235 1536.2 897.567 1551.65 904.261C1548.28 909.467 1545.37 914.633 1541.83 919.319C1521.32 946.444 1493.76 957.992 1460.06 956.62C1413.97 954.743 1378.49 925.421 1369.88 880.103C1361.2 834.409 1380.54 791.388 1420.28 772.195C1451.49 757.119 1502.63 757.522 1532.1 788.809C1539.22 796.375 1545.16 804.677 1549.44 814.804C1534.46 821.052 1519.68 827.215 1504.92 833.368C1487.98 800.063 1450.23 803.198 1432.69 820.032Z" fill="#E01806"/>
<path d="M652.024 840.534C652.024 877.342 652.024 913.651 652.024 950.332C635.162 950.332 618.591 950.332 601.678 950.332C601.678 862.036 601.678 773.628 601.678 684.875C618.184 684.875 634.76 684.875 652.024 684.875C652.024 736.517 652.024 788.275 652.024 840.534Z" fill="#E01907"/>
<path d="M1144.51 1.14898C1174.88 6.66168 1197.03 33.3831 1197.18 64.3169C1197.34 95.0172 1175.23 121.95 1145.22 127.619C1110.41 134.196 1077.65 112.781 1069.85 78.3496C1062.17 44.4426 1082.72 10.5202 1116.93 2.23734C1125.57 0.144213 1135.02 1.34854 1144.51 1.14898ZM1156.2 31.43C1153.5 16.9719 1143.11 8.72337 1128.69 9.58546C1107.23 10.8685 1087.52 26.3023 1080.5 47.3254C1073.61 67.9691 1080.2 91.927 1096.65 105.848C1098.28 107.228 1100.08 108.403 1102.1 109.886C1101.08 104.374 1099.61 99.7048 1099.45 94.9897C1098.8 76.4748 1112.23 62.5591 1133.1 59.6417C1148.19 57.5322 1156.58 47.6383 1156.2 31.43ZM1123.25 101.774C1127.47 108.505 1137.12 108 1141.18 102.759C1144.6 98.3575 1144.54 92.1747 1140.9 88.125C1137.21 84.0219 1131.16 83.2479 1126.44 86.2768C1121.51 89.4459 1120.24 94.7441 1123.25 101.774Z" fill="#E01908"/>
<path d="M1142.69 28.3102C1147.28 38.0788 1138.71 46.7496 1130.62 45.1147C1125.26 44.0325 1121.56 40.0487 1121.18 35.0088C1120.78 29.5274 1123.45 25.0189 1128.25 23.1053C1133.52 21.0032 1138.34 22.6589 1142.69 28.3102Z" fill="#E11C0A"/>
</svg>
