<svg width="458" height="566" viewBox="0 0 458 566" fill="none" xmlns="http://www.w3.org/2000/svg">
<path d="M0.0525758 89.5335C0.413538 76.7314 -0.41654 64.2533 1.37045 52.1619C5.80837 22.132 34.1449 -0.614975 64.7589 0.0126795C96.8432 0.670486 123.661 24.4664 127.345 55.6214C127.773 59.2478 128.027 62.9184 128.028 66.5687C128.065 158.56 128.044 250.551 128.067 342.542C128.072 364.124 132.392 384.646 144.882 402.631C164.23 430.492 191.885 442.836 225.073 443.971C248.283 444.766 270.203 440.188 289.155 425.994C315.571 406.209 327.782 379.033 328.118 346.556C328.539 305.897 328.134 265.231 328.246 224.569C328.335 192.27 349.494 166.569 380.865 160.299C418.691 152.738 455.944 181.354 456.858 220.155C457.83 261.458 457.229 302.802 457.057 344.128C456.97 365.019 454.542 385.736 448.285 405.702C422.345 488.474 367.186 540.653 282.427 559.208C229.468 570.801 176.775 566.903 127.173 543.514C59.5214 511.614 18.376 458.208 4.30428 384.657C1.44576 369.716 0.304528 354.243 0.234338 339.006C-0.147987 256.017 0.0525758 173.025 0.0525758 89.5335Z" fill="#E01705"/>
<path d="M404.547 1.14898C434.922 6.66168 457.068 33.3831 457.223 64.3169C457.376 95.0172 435.269 121.95 405.262 127.619C370.448 134.196 337.688 112.781 329.887 78.3496C322.205 44.4426 342.758 10.5202 376.966 2.23734C385.611 0.144213 395.054 1.34854 404.547 1.14898ZM416.241 31.43C413.54 16.9719 403.152 8.72337 388.732 9.58546C367.271 10.8685 347.563 26.3023 340.54 47.3254C333.644 67.9691 340.237 91.927 356.687 105.848C358.318 107.228 360.122 108.403 362.135 109.886C361.116 104.374 359.652 99.7048 359.487 94.9897C358.837 76.4748 372.271 62.5591 393.138 59.6417C408.226 57.5322 416.615 47.6383 416.241 31.43ZM383.288 101.774C387.511 108.505 397.158 108 401.223 102.759C404.636 98.3575 404.575 92.1747 400.936 88.125C397.25 84.0219 391.194 83.2479 386.479 86.2768C381.546 89.4459 380.275 94.7441 383.288 101.774Z" fill="#E01908"/>
<path d="M402.733 28.3102C407.32 38.0788 398.747 46.7496 390.656 45.1147C385.301 44.0325 381.597 40.0487 381.222 35.0088C380.814 29.5274 383.491 25.0189 388.29 23.1053C393.561 21.0032 398.382 22.6589 402.733 28.3102Z" fill="#E11C0A"/>
</svg>
