<svg version="1.1" id="Layer_1" xmlns="http://www.w3.org/2000/svg" xmlns:xlink="http://www.w3.org/1999/xlink" x="0px" y="0px"
	 width="100%" viewBox="0 0 2372 1379" enable-background="new 0 0 2372 1379" xml:space="preserve">
<path fill="#FFFFFF" opacity="1.000000" stroke="none" 
	d="
M1773.000000,1380.000000 
	C1182.000000,1380.000000 591.500000,1380.000000 1.000000,1380.000000 
	C1.000000,920.333313 1.000000,460.666656 1.000000,1.000000 
	C791.666687,1.000000 1582.333374,1.000000 2373.000000,1.000000 
	C2373.000000,460.666656 2373.000000,920.333313 2373.000000,1380.000000 
	C2173.166748,1380.000000 1973.333374,1380.000000 1773.000000,1380.000000 
M931.833313,181.499969 
	C931.833313,264.491119 931.632751,347.483154 932.015076,430.472565 
	C932.085266,445.709198 933.226501,461.182770 936.085022,476.123810 
	C950.156738,549.674744 991.302185,603.080322 1058.954102,634.980652 
	C1108.555298,658.369385 1161.248535,662.267334 1214.207520,650.674133 
	C1298.967163,632.119324 1354.126221,579.940857 1380.065918,497.168060 
	C1386.322876,477.202637 1388.751099,456.485809 1388.838013,435.594208 
	C1389.009766,394.268799 1389.611206,352.924530 1388.638672,311.620972 
	C1387.724976,272.820160 1350.471680,244.203964 1312.645386,251.765060 
	C1281.274902,258.035706 1260.115723,283.736450 1260.026978,316.035278 
	C1259.915161,356.697662 1260.319702,397.363861 1259.898804,438.022217 
	C1259.562500,470.499054 1247.351685,497.675446 1220.935425,517.460266 
	C1201.984131,531.654053 1180.064209,536.231934 1156.854126,535.437683 
	C1123.665283,534.302002 1096.011230,521.958008 1076.662720,494.097260 
	C1064.172729,476.112396 1059.852661,455.590118 1059.847290,434.008057 
	C1059.824585,342.017059 1059.845459,250.026077 1059.808716,158.035110 
	C1059.807251,154.384857 1059.554077,150.714279 1059.125366,147.087814 
	C1055.441528,115.932877 1028.623901,92.136917 996.539673,91.479111 
	C965.925659,90.851456 937.589111,113.598457 933.151184,143.628326 
	C931.364197,155.719681 932.194275,168.197830 931.833313,181.499969 
M525.671753,904.172852 
	C516.568604,911.390686 506.405548,917.616150 498.552124,926.004150 
	C469.919647,956.585754 477.920319,1007.078430 515.033752,1030.074341 
	C545.075623,1048.688477 577.141541,1049.533325 609.295959,1036.423340 
	C621.577148,1031.416016 632.626770,1023.388000 645.990234,1015.732666 
	C656.700256,1027.440674 668.490356,1040.329590 679.618958,1052.495239 
	C690.454468,1041.641968 700.046814,1032.033813 709.779968,1022.284668 
	C697.177307,1010.124146 684.143738,997.547791 671.970398,985.801453 
	C679.517090,970.747192 686.678284,956.357178 693.957703,942.027100 
	C695.448364,939.092773 694.810242,937.402588 692.135010,935.506775 
	C684.257507,929.924316 676.601013,924.030334 668.856140,918.260620 
	C665.607910,915.840698 662.355408,913.426575 658.818359,910.796814 
	C653.593750,926.302856 647.683411,940.622009 638.844849,954.416382 
	C623.785828,938.733032 609.202148,923.544678 594.298645,908.023315 
	C596.673889,906.708069 598.231628,905.817444 599.814209,904.973572 
	C614.398560,897.196777 628.476074,888.766052 640.033997,876.627625 
	C665.823792,849.542358 660.066101,808.005981 627.455994,789.862183 
	C605.543640,777.670349 582.023865,776.755920 558.182861,782.848267 
	C538.578369,787.858032 523.466797,798.910583 516.076599,818.398743 
	C508.595032,838.127930 511.496246,857.404541 520.545715,875.888000 
	C524.457886,883.878662 529.370789,891.379395 533.936768,899.289307 
	C531.416443,900.806763 528.874817,902.337097 525.671753,904.172852 
M397.966156,953.365173 
	C398.257019,948.881409 398.795929,944.398010 398.800903,939.913879 
	C398.859711,886.919128 398.838715,833.924255 398.838715,780.929443 
	C398.838715,779.345459 398.838684,777.761536 398.838684,776.300415 
	C381.676544,776.300415 365.256500,776.300415 348.475586,776.300415 
	C348.475586,778.406494 348.475616,780.215271 348.475616,782.024048 
	C348.475616,833.019043 348.488953,884.014099 348.453125,935.009094 
	C348.449860,939.665527 348.374969,944.345642 347.919952,948.974121 
	C344.958893,979.094177 326.921875,999.696716 296.223236,1000.438416 
	C275.300262,1000.943848 257.238281,990.546692 248.424606,971.538452 
	C243.495316,960.907593 242.018051,949.556152 242.012299,937.973389 
	C241.986420,885.811829 242.001007,833.650208 242.001007,781.488647 
	C242.001007,779.728394 242.000992,777.968201 242.000992,776.289551 
	C224.942551,776.289551 208.522690,776.289551 191.832397,776.289551 
	C191.832397,778.387695 191.832382,780.197388 191.832382,782.007080 
	C191.832367,832.335510 191.780869,882.664001 191.884384,932.992188 
	C191.901138,941.137329 192.068619,949.349304 193.092377,957.412781 
	C196.422852,983.644714 206.274216,1006.900269 226.448715,1024.749634 
	C245.020859,1041.181274 267.445099,1047.609985 291.771851,1048.117065 
	C326.644592,1048.843994 356.156433,1037.408447 377.557251,1008.825806 
	C389.626465,992.706238 395.407166,974.050964 397.966156,953.365173 
M1284.146606,1042.756592 
	C1299.425049,1036.505127 1312.218750,1026.983765 1322.158569,1013.750000 
	C1340.331909,989.554626 1345.005859,962.176208 1340.971924,932.838623 
	C1335.341187,891.887207 1303.894897,859.559631 1263.602051,854.684875 
	C1238.099365,851.599426 1215.689087,858.303284 1199.967651,880.473083 
	C1199.415894,881.251160 1198.302979,881.631287 1196.451660,882.861023 
	C1196.451660,874.562439 1196.451660,867.370850 1196.451660,860.224182 
	C1180.818848,860.224182 1165.874512,860.224182 1150.811279,860.224182 
	C1150.811279,947.667236 1150.811279,1034.884766 1150.811279,1122.106812 
	C1167.191284,1122.106812 1183.231934,1122.106812 1200.087891,1122.106812 
	C1199.450439,1087.894897 1198.821045,1054.115112 1198.184814,1019.966797 
	C1199.001953,1020.894104 1199.834229,1021.983032 1200.810425,1022.922302 
	C1206.053223,1027.967041 1210.682983,1034.002808 1216.715210,1037.809082 
	C1237.845581,1051.142090 1260.431274,1050.770020 1284.146606,1042.756592 
M955.075989,891.409363 
	C966.906250,903.850891 981.351624,912.112793 997.284119,918.114319 
	C1010.960510,923.265991 1024.828369,928.058167 1038.046509,934.221069 
	C1045.721924,937.799744 1053.304810,942.787476 1059.136230,948.862427 
	C1071.844360,962.101318 1068.242554,983.669128 1052.650879,993.284607 
	C1041.326172,1000.268555 1028.890503,1001.622925 1016.089966,999.495605 
	C997.524719,996.410217 986.589478,983.947449 978.952942,967.903076 
	C976.835571,963.454468 975.324829,958.717163 973.502808,954.027405 
	C957.815063,960.218506 942.280640,966.349060 926.534058,972.563416 
	C932.978882,994.580688 944.041077,1013.107971 961.899719,1026.811157 
	C992.556091,1050.334106 1026.864380,1053.901489 1062.558838,1041.656616 
	C1093.245728,1031.129517 1113.238159,1010.162781 1116.520508,976.526917 
	C1119.689575,944.053101 1107.477783,918.655212 1079.593750,901.253540 
	C1064.663208,891.935791 1048.098755,886.404846 1031.510620,880.912598 
	C1018.716858,876.676636 1006.011292,872.060364 995.337219,863.443909 
	C981.173096,852.010071 982.128967,832.415710 997.723145,823.178772 
	C1012.604919,814.363708 1028.515869,813.696533 1044.040894,821.306091 
	C1053.805664,826.092163 1059.545166,835.081421 1063.777222,845.408508 
	C1078.597778,839.183411 1093.242188,833.032288 1108.110229,826.787170 
	C1102.808472,812.275146 1095.039185,799.933472 1083.363281,790.211426 
	C1054.202759,765.930664 1004.967651,763.144348 971.195679,783.587402 
	C933.672546,806.301147 924.134705,857.975098 955.075989,891.409363 
M1806.714233,867.153870 
	C1769.964844,889.251099 1753.657715,931.874390 1762.547729,973.349670 
	C1771.304932,1014.205872 1801.271240,1041.695068 1842.902466,1047.150635 
	C1873.399902,1051.147217 1901.200562,1044.679932 1924.177002,1022.881592 
	C1931.754517,1015.692749 1938.265015,1007.658997 1943.268921,998.147400 
	C1929.435547,991.307373 1916.093628,984.710388 1902.796143,978.135376 
	C1885.980957,1005.822876 1860.813599,1008.854858 1838.378296,1001.478149 
	C1823.227417,996.496521 1808.780518,978.956848 1809.413940,962.410706 
	C1854.620728,962.410706 1899.851074,962.410706 1946.407593,962.410706 
	C1945.927002,951.767517 1946.168457,941.603821 1944.877319,931.638611 
	C1941.869507,908.421387 1932.739380,888.008118 1914.015503,873.089355 
	C1884.885376,849.878967 1840.742432,847.479004 1806.714233,867.153870 
M1374.667358,950.202881 
	C1355.650513,976.233521 1360.056763,1012.366028 1384.464478,1032.355225 
	C1406.934570,1050.757690 1452.432983,1059.046387 1480.745117,1025.364746 
	C1481.705933,1024.221558 1483.250000,1023.568665 1485.536377,1021.984619 
	C1485.536377,1029.593994 1485.536377,1035.696411 1485.536377,1041.754395 
	C1501.876587,1041.754395 1517.747070,1041.754395 1533.840210,1041.754395 
	C1533.840210,1023.364136 1533.946167,1005.386902 1533.813232,987.411438 
	C1533.648315,965.101807 1533.908447,942.764160 1532.855347,920.492004 
	C1531.453247,890.836670 1513.935303,868.227356 1485.545166,859.746521 
	C1474.369751,856.408203 1462.414185,854.776489 1450.727661,854.236633 
	C1423.489624,852.978516 1398.614746,859.973999 1378.088501,878.950439 
	C1374.275269,882.475769 1370.887451,886.460999 1367.052856,890.497559 
	C1379.392090,898.930237 1390.992676,906.858154 1402.719482,914.872375 
	C1404.758667,912.764343 1406.450439,910.939270 1408.222412,909.195496 
	C1422.181763,895.457642 1438.927856,891.053467 1457.805298,895.174194 
	C1476.375366,899.227844 1487.793457,914.942566 1484.871826,932.142090 
	C1468.003784,925.456665 1450.464233,923.185364 1432.504395,924.017578 
	C1410.048706,925.057983 1390.063843,931.766724 1374.667358,950.202881 
M2043.426880,967.026672 
	C2052.462158,969.764038 2061.650146,972.092407 2070.478271,975.384888 
	C2076.216064,977.524841 2079.986816,982.127563 2079.977051,988.790771 
	C2079.967529,995.206238 2075.672607,998.565308 2070.626709,1001.214111 
	C2068.727783,1002.210999 2066.703125,1003.062622 2064.640381,1003.638550 
	C2043.608887,1009.510132 2023.437134,1000.884033 2012.979126,981.624207 
	C2012.221558,980.228882 2011.426025,978.854004 2010.582886,977.353699 
	C1995.790283,983.698914 1981.496094,989.830322 1965.695068,996.608032 
	C1971.944946,1005.515259 1976.874512,1014.296326 1983.444214,1021.602539 
	C2013.166382,1054.656494 2073.595459,1055.615479 2104.683838,1032.412354 
	C2118.835205,1021.850403 2128.273926,1008.318604 2128.893311,990.221252 
	C2129.669434,967.556335 2118.857910,950.940613 2098.884277,941.399475 
	C2087.180176,935.808533 2074.135742,932.996033 2061.646484,929.085327 
	C2051.202393,925.814880 2040.599487,923.028687 2030.247437,919.498657 
	C2025.507568,917.882385 2021.983276,914.323669 2022.038818,908.696899 
	C2022.091431,903.358154 2025.577759,900.267761 2029.853882,897.991089 
	C2039.491211,892.860291 2049.619141,892.721985 2059.918457,895.489075 
	C2070.371094,898.297180 2078.404541,904.313232 2083.126221,914.191833 
	C2097.496582,908.327209 2111.287842,902.698914 2125.284912,896.986633 
	C2120.986816,886.882690 2115.207275,878.436523 2106.932373,871.960388 
	C2088.558594,857.579956 2067.090088,853.432617 2044.454590,854.149597 
	C2025.279297,854.756897 2007.219849,859.364258 1992.104858,872.016785 
	C1971.561890,889.213379 1968.029175,918.623718 1984.008545,939.155579 
	C1991.254639,948.466064 2000.738770,955.048218 2011.795654,958.742859 
	C2021.848389,962.101807 2032.311890,964.230713 2043.426880,967.026672 
M1624.774780,911.260193 
	C1642.052246,894.664734 1679.802368,891.529785 1696.744019,924.834778 
	C1711.500122,918.681274 1726.279541,912.518005 1741.261597,906.270264 
	C1736.975708,896.143372 1731.043823,887.841492 1723.917358,880.275574 
	C1694.447021,848.988403 1643.306885,848.585083 1612.096313,863.660950 
	C1572.360962,882.854858 1553.016724,925.875061 1561.699219,971.569702 
	C1570.309814,1016.887024 1605.793457,1046.209351 1651.879883,1048.086060 
	C1685.574951,1049.458130 1713.136353,1037.910767 1733.647095,1010.785767 
	C1737.190918,1006.099060 1740.101440,1000.933411 1743.473877,995.727539 
	C1728.018433,989.033691 1713.398804,982.701721 1698.592407,976.288940 
	C1697.794800,977.547668 1697.055664,978.631836 1696.398315,979.763550 
	C1683.701904,1001.623718 1657.682251,1009.176453 1634.977173,998.047363 
	C1602.539795,982.147888 1601.364868,932.197693 1624.774780,911.260193 
M843.843018,931.500000 
	C843.843018,879.741699 843.843018,827.983398 843.843018,776.341492 
	C826.578979,776.341492 810.003052,776.341492 793.496948,776.341492 
	C793.496948,865.094849 793.496948,953.502075 793.496948,1041.798828 
	C810.410583,1041.798828 826.981628,1041.798828 843.843018,1041.798828 
	C843.843018,1005.117615 843.843018,968.808838 843.843018,931.500000 
M1335.910889,92.504036 
	C1326.834595,92.814980 1317.391479,91.610657 1308.746704,93.703789 
	C1274.538330,101.986610 1253.986206,135.909073 1261.667725,169.816010 
	C1269.468262,204.247940 1302.229248,225.662338 1337.042969,219.085342 
	C1367.049683,213.416504 1389.157104,186.483658 1389.003418,155.783295 
	C1388.848633,124.849564 1366.702637,98.128128 1335.910889,92.504036 
M748.538147,1266.494873 
	C748.538147,1252.070801 748.538147,1237.646729 748.538147,1223.248779 
	C744.576050,1223.248779 741.295593,1223.248779 737.645020,1223.248779 
	C737.645020,1225.576660 737.645020,1227.648560 737.645020,1230.478027 
	C736.351562,1229.331177 735.645752,1228.732422 734.969604,1228.101685 
	C725.169556,1218.960815 710.519653,1218.769165 700.506958,1227.655396 
	C688.821655,1238.026123 686.207092,1256.523438 694.507202,1270.101685 
	C700.693481,1280.221924 711.065857,1285.414185 722.531006,1282.802368 
	C727.899780,1281.579102 732.762207,1278.132935 737.583923,1275.823608 
	C738.589294,1286.591309 734.794556,1294.565186 726.672668,1297.645264 
	C717.281738,1301.206665 709.662842,1298.194580 702.087952,1287.761597 
	C698.845886,1289.165161 695.549927,1290.592041 692.278015,1292.008545 
	C695.250732,1299.815918 699.975830,1304.379517 707.646240,1307.147217 
	C729.126221,1314.898193 747.913208,1302.200806 748.520874,1279.486450 
	C748.627808,1275.490967 748.537292,1271.490356 748.538147,1266.494873 
M441.103821,1292.526978 
	C443.596497,1295.988037 445.458435,1300.271118 448.699127,1302.757202 
	C458.785522,1310.495117 470.206543,1311.268311 481.672729,1306.234375 
	C492.671204,1301.405762 497.048523,1291.989258 497.138245,1280.457886 
	C497.279510,1262.307007 497.180603,1244.154053 497.162994,1226.002075 
	C497.162109,1225.069824 496.970245,1224.137695 496.877014,1223.293701 
	C493.277588,1223.293701 490.036255,1223.293701 486.713196,1223.293701 
	C486.504120,1225.613892 486.321198,1227.643677 486.111267,1229.973389 
	C469.005035,1213.812988 449.691345,1222.145142 442.545532,1236.041016 
	C436.473236,1247.849365 436.794891,1259.814453 444.026306,1271.118286 
	C450.312836,1280.945068 461.020203,1285.609619 472.042755,1282.754028 
	C477.075226,1281.450317 481.593109,1278.160156 486.184082,1275.851562 
	C487.321564,1286.683838 483.536743,1294.590698 475.433685,1297.639038 
	C465.960999,1301.202515 458.225891,1298.154663 450.866150,1287.753296 
	C447.765350,1289.102417 444.594604,1290.482056 441.103821,1292.526978 
M1737.761475,1261.573730 
	C1740.238403,1271.028564 1745.790894,1278.163696 1754.877563,1281.688354 
	C1765.770752,1285.913818 1775.615967,1283.170532 1784.070557,1274.688843 
	C1785.279785,1286.606567 1781.707642,1294.268066 1773.836914,1297.452148 
	C1764.336182,1301.295898 1757.204956,1298.585571 1748.837891,1287.798462 
	C1745.602295,1289.170654 1742.306152,1290.568481 1738.726074,1292.086670 
	C1739.835938,1294.142700 1740.572266,1295.807373 1741.566772,1297.300049 
	C1748.217163,1307.281372 1762.058350,1311.604980 1775.490356,1307.958374 
	C1786.883301,1304.865234 1794.848022,1295.044922 1795.048218,1282.531128 
	C1795.359741,1263.050171 1795.107788,1243.560303 1795.070679,1224.074219 
	C1795.070190,1223.809692 1794.755615,1223.545654 1794.579346,1223.268311 
	C1791.325195,1223.268311 1788.082642,1223.268311 1784.729858,1223.268311 
	C1784.512817,1225.555420 1784.320557,1227.580933 1784.067383,1230.248901 
	C1783.071655,1229.367065 1782.594360,1228.967163 1782.142212,1228.540527 
	C1771.751831,1218.738159 1757.060547,1218.510864 1746.637085,1228.269287 
	C1737.102783,1237.195190 1735.133667,1248.424805 1737.761475,1261.573730 
M225.654739,1196.834839 
	C214.554459,1196.834839 203.454163,1196.834839 192.172150,1196.834839 
	C192.172150,1224.811523 192.172150,1252.993652 192.172150,1281.532349 
	C201.820236,1281.532349 211.130524,1281.730103 220.429688,1281.493042 
	C242.930832,1280.919312 259.343842,1265.622925 260.924805,1243.999878 
	C262.778229,1218.650879 249.813278,1200.909302 225.654739,1196.834839 
M1295.538818,1247.640991 
	C1295.107056,1244.599731 1296.740234,1244.102051 1299.366699,1244.130737 
	C1309.625000,1244.242920 1319.885254,1244.176514 1330.282227,1244.176514 
	C1330.282227,1240.458618 1330.282227,1237.362671 1330.282227,1233.682861 
	C1318.654541,1233.682861 1307.268188,1233.682861 1295.816650,1233.682861 
	C1295.816650,1224.522217 1295.816650,1215.950317 1295.816650,1206.940674 
	C1308.671753,1206.940674 1321.253418,1206.940674 1333.774902,1206.940674 
	C1333.774902,1203.120239 1333.774902,1199.755859 1333.774902,1196.432617 
	C1317.126709,1196.432617 1300.881104,1196.432617 1284.395874,1196.432617 
	C1284.395874,1224.781128 1284.395874,1252.850342 1284.395874,1281.228760 
	C1300.921875,1281.228760 1317.324097,1281.228760 1333.911621,1281.228760 
	C1333.911621,1277.814575 1333.911621,1274.583740 1333.911621,1270.927979 
	C1321.066406,1270.927979 1308.477661,1270.927979 1295.537476,1270.927979 
	C1295.537476,1263.206909 1295.537476,1255.910278 1295.538818,1247.640991 
M797.823547,1218.395264 
	C797.877197,1225.876099 801.328003,1231.645630 807.562073,1235.328857 
	C812.238525,1238.091797 817.500732,1239.859619 822.489075,1242.099609 
	C826.871582,1244.067383 831.444397,1245.724243 835.552185,1248.160645 
	C840.032776,1250.818359 842.017273,1255.165527 841.397461,1260.506104 
	C840.774597,1265.872559 837.606750,1269.208984 832.831482,1271.229980 
	C823.929016,1274.997559 814.325134,1271.979004 808.852600,1263.571899 
	C807.344910,1261.255737 806.250000,1258.670776 804.840881,1255.969971 
	C801.403015,1257.409424 798.099915,1258.792358 794.871033,1260.144287 
	C798.859253,1278.536621 818.838867,1288.369019 837.036499,1281.267700 
	C848.208191,1276.908325 853.824219,1268.251343 852.954956,1256.392212 
	C852.237244,1246.600830 846.657837,1240.090454 838.116211,1236.104980 
	C831.054321,1232.810059 823.716248,1230.110840 816.536011,1227.064331 
	C811.856384,1225.078735 808.719666,1221.724731 809.121399,1216.373413 
	C809.532593,1210.895142 813.313293,1207.862793 818.116455,1206.109619 
	C826.690735,1202.979858 833.865784,1206.161133 840.643738,1216.034668 
	C843.856445,1214.623169 847.105774,1213.195435 850.311523,1211.786987 
	C845.382324,1198.566772 831.856079,1191.949097 816.836487,1195.092651 
	C805.640137,1197.436035 796.776428,1207.469360 797.823547,1218.395264 
M870.824219,1226.629639 
	C870.824219,1253.356201 870.824219,1280.082764 870.824219,1306.941650 
	C874.787659,1306.941650 878.190674,1306.941650 881.951599,1306.941650 
	C881.951599,1296.231934 881.951599,1285.747925 881.951599,1274.932495 
	C898.136719,1290.297974 918.856689,1283.630371 926.540894,1266.270508 
	C931.008850,1256.176514 930.690125,1245.835815 925.315186,1236.033569 
	C918.766235,1224.090454 907.235229,1218.661255 894.777405,1222.200195 
	C890.148254,1223.515137 886.054077,1226.713379 881.458984,1229.191284 
	C881.458984,1227.348145 881.458984,1225.404907 881.458984,1223.001465 
	C878.312378,1223.001465 875.511414,1222.819946 872.763916,1223.123169 
	C872.033630,1223.203857 871.467468,1224.772339 870.824219,1226.629639 
M1105.879883,1283.449463 
	C1118.588135,1283.936890 1128.452515,1279.243286 1135.010376,1267.615112 
	C1131.485229,1265.891968 1128.293945,1264.332031 1125.223145,1262.830933 
	C1117.784912,1272.500488 1111.213989,1275.128052 1102.697510,1272.184692 
	C1094.822144,1269.462769 1090.308960,1263.077759 1090.537720,1254.333374 
	C1105.552490,1254.333374 1120.591675,1254.333374 1135.568970,1254.333374 
	C1136.721191,1238.213379 1128.810791,1225.480957 1116.022339,1222.174316 
	C1098.555786,1217.657959 1082.391602,1227.683960 1079.186768,1245.021606 
	C1075.511353,1264.906372 1086.497559,1281.171509 1105.879883,1283.449463 
M1393.847534,1260.281616 
	C1393.534424,1258.557739 1393.221191,1256.833984 1392.775024,1254.377808 
	C1408.430298,1254.377808 1423.467896,1254.377808 1438.736694,1254.377808 
	C1438.697266,1246.659790 1437.754517,1239.829346 1434.020264,1233.656128 
	C1430.900879,1228.499390 1426.566528,1224.717896 1420.746216,1222.922852 
	C1408.800781,1219.238403 1397.824463,1220.726196 1389.280029,1230.442505 
	C1379.992310,1241.004028 1379.087280,1253.483154 1384.134644,1265.991089 
	C1388.793457,1277.536255 1398.215820,1283.346558 1410.769409,1283.513550 
	C1422.824585,1283.674072 1433.447876,1277.209961 1437.335571,1267.428833 
	C1434.278076,1265.902466 1431.204712,1264.368286 1428.211304,1262.874023 
	C1415.935913,1277.341431 1401.385132,1276.448608 1393.847534,1260.281616 
M2020.396851,1277.132202 
	C2033.098633,1288.391846 2058.722900,1284.575928 2065.377441,1267.398193 
	C2062.303711,1265.895142 2059.218018,1264.386230 2056.207764,1262.914307 
	C2047.878296,1272.959351 2040.576416,1275.546753 2031.964111,1271.694092 
	C2024.965698,1268.563232 2020.665894,1261.536255 2021.726562,1254.394043 
	C2036.589111,1254.394043 2051.523926,1254.394043 2067.018066,1254.394043 
	C2066.650146,1250.785889 2066.516113,1247.652954 2065.984619,1244.588867 
	C2064.174561,1234.157715 2058.894531,1226.209717 2048.521729,1222.848145 
	C2037.667114,1219.330200 2027.548950,1220.806885 2018.775513,1228.776367 
	C2006.517334,1239.910889 2005.737793,1265.097656 2020.396851,1277.132202 
M292.202118,1281.500366 
	C308.427551,1286.724121 324.877472,1280.607544 329.780731,1267.402588 
	C326.721863,1265.872559 323.650787,1264.336426 320.666016,1262.843506 
	C312.606934,1272.675293 306.421906,1275.141357 297.843964,1272.156250 
	C290.347992,1269.547607 285.964417,1263.364990 285.782257,1254.487915 
	C300.805969,1254.487915 315.834015,1254.487915 330.944977,1254.487915 
	C330.944977,1251.669312 331.166046,1249.496948 330.907654,1247.383057 
	C329.623108,1236.875000 325.399536,1228.050293 315.151550,1223.697998 
	C305.196869,1219.470337 295.180023,1219.855225 286.213562,1226.347534 
	C267.375458,1239.987915 270.478973,1271.165894 292.202118,1281.500366 
M948.376343,1235.098877 
	C950.440552,1236.365234 952.504822,1237.631592 954.492188,1238.850830 
	C961.474243,1231.406860 968.586609,1229.390625 975.589661,1232.665405 
	C981.571594,1235.462524 984.323608,1240.231812 983.569153,1246.549683 
	C975.123657,1243.046143 966.452820,1242.524170 957.693237,1244.952148 
	C948.612366,1247.468872 943.250549,1253.953369 942.992249,1262.270020 
	C942.701904,1271.619995 947.634155,1278.953857 956.716980,1281.990112 
	C967.171021,1285.484985 976.285278,1283.335815 983.716553,1274.052002 
	C983.943115,1276.937500 984.114868,1279.124634 984.280090,1281.228882 
	C987.961914,1281.228882 991.225342,1281.228882 994.850708,1281.228882 
	C994.850708,1269.457275 994.855164,1257.995605 994.844727,1246.533936 
	C994.843567,1245.203979 994.854248,1243.863037 994.698547,1242.546143 
	C994.015625,1236.768677 992.035461,1231.581787 987.638489,1227.543457 
	C977.253418,1218.005737 953.296875,1218.624756 945.018921,1232.692627 
	C945.915771,1233.375854 946.829529,1234.071777 948.376343,1235.098877 
M1568.007446,1265.497070 
	C1568.000244,1258.503296 1568.128906,1251.506104 1567.950073,1244.516602 
	C1567.741943,1236.386597 1564.669067,1229.637573 1557.577515,1225.150269 
	C1548.068726,1219.133301 1527.258667,1218.469482 1518.043701,1232.838135 
	C1521.208740,1234.841187 1524.371338,1236.842773 1527.455444,1238.794434 
	C1535.931274,1230.823608 1542.792969,1229.189575 1550.008545,1233.235107 
	C1555.228882,1236.161987 1557.545410,1240.796265 1556.735596,1244.969604 
	C1549.329468,1244.640259 1542.057617,1243.583008 1534.919922,1244.166260 
	C1523.346924,1245.111938 1515.899170,1253.325806 1516.020142,1263.578247 
	C1516.140503,1273.777954 1523.941406,1281.677734 1535.017822,1283.218750 
	C1543.878784,1284.451416 1550.909668,1281.432739 1556.892944,1273.984863 
	C1557.081299,1276.873047 1557.216187,1278.941162 1557.366211,1281.241455 
	C1560.922729,1281.241455 1564.333618,1281.241455 1568.007446,1281.241455 
	C1568.007446,1276.130493 1568.007446,1271.312744 1568.007446,1265.497070 
M622.152832,1272.432129 
	C622.152832,1275.350708 622.152832,1278.269409 622.152832,1281.217529 
	C626.270508,1281.217529 629.677856,1281.217529 633.537598,1281.217529 
	C633.537598,1273.620972 633.485840,1266.335449 633.555847,1259.050903 
	C633.602051,1254.236694 633.314514,1249.341797 634.076538,1244.628540 
	C635.478210,1235.958862 642.402893,1230.857788 650.756409,1231.614868 
	C658.906860,1232.353516 662.771606,1237.236816 662.822144,1246.872681 
	C662.834351,1249.202148 662.823914,1251.531738 662.823914,1253.861206 
	C662.823914,1262.951782 662.823975,1272.042358 662.823975,1281.262695 
	C666.844604,1281.262695 670.263855,1281.262695 673.864685,1281.262695 
	C673.864685,1267.536011 674.389465,1254.056030 673.710449,1240.637085 
	C673.087158,1228.319946 664.542175,1221.195068 652.159424,1221.152954 
	C644.617310,1221.127319 638.599487,1224.500854 632.996582,1230.563232 
	C632.996582,1227.535400 632.996582,1225.464844 632.996582,1223.306885 
	C629.250427,1223.306885 625.863464,1223.306885 622.152832,1223.306885 
	C622.152832,1239.563232 622.152832,1255.507935 622.152832,1272.432129 
M1680.176514,1248.923828 
	C1680.595215,1246.645752 1680.726685,1244.266846 1681.484009,1242.107544 
	C1684.264648,1234.179321 1690.881836,1230.440796 1699.179199,1231.868408 
	C1706.212036,1233.078613 1709.418823,1237.624634 1709.455078,1246.564941 
	C1709.489502,1255.061279 1709.462402,1263.557739 1709.462402,1272.054199 
	C1709.462402,1275.135986 1709.462524,1278.217896 1709.462524,1281.185303 
	C1713.732788,1281.185303 1717.162720,1281.185303 1720.847168,1281.185303 
	C1720.847168,1269.017944 1720.847778,1257.201050 1720.846313,1245.384155 
	C1720.846191,1244.218140 1720.913208,1243.045166 1720.814575,1241.887085 
	C1719.627563,1227.960083 1710.166504,1219.807617 1696.677246,1221.209106 
	C1690.190186,1221.882935 1684.789917,1224.889160 1679.828857,1230.757446 
	C1679.828857,1227.517334 1679.828857,1225.465088 1679.828857,1223.306152 
	C1675.991943,1223.306152 1672.607422,1223.306152 1669.355225,1223.306152 
	C1669.355225,1242.831787 1669.355225,1262.042114 1669.355225,1281.162964 
	C1673.120361,1281.162964 1676.513428,1281.162964 1680.176147,1281.162964 
	C1680.176147,1270.474487 1680.176147,1260.158203 1680.176514,1248.923828 
M557.995850,1274.388428 
	C557.995850,1276.650513 557.995850,1278.912720 557.995850,1281.225586 
	C562.020508,1281.225586 565.435730,1281.225586 568.944519,1281.225586 
	C569.035889,1280.109741 569.162964,1279.289673 569.161316,1278.469849 
	C569.136475,1266.147339 569.439819,1253.811646 568.966919,1241.505859 
	C568.415039,1227.148193 556.871826,1218.388672 542.835693,1221.860352 
	C537.668579,1223.138428 533.012817,1226.483765 528.125244,1228.885498 
	C528.125244,1227.370605 528.125244,1225.403687 528.125244,1223.330933 
	C524.540771,1223.330933 521.160828,1223.330933 517.890381,1223.330933 
	C517.890381,1242.874634 517.890381,1262.080444 517.890381,1281.206543 
	C521.580200,1281.206543 524.838989,1281.206543 528.320190,1281.206543 
	C528.399780,1279.429688 528.505859,1277.964722 528.524536,1276.498657 
	C528.651489,1266.512695 528.409912,1256.506592 528.976929,1246.546143 
	C529.500732,1237.345337 536.591248,1231.136597 545.025513,1231.547119 
	C554.007996,1231.984253 557.982300,1236.845825 557.993896,1247.438110 
	C558.003418,1256.098145 557.995850,1264.758301 557.995850,1274.388428 
M1165.351196,1233.858765 
	C1173.818359,1229.049683 1180.443481,1230.519775 1187.696533,1238.955811 
	C1190.786987,1237.648804 1193.935059,1236.317505 1197.055054,1234.998047 
	C1191.298584,1218.950317 1164.870239,1216.818481 1154.604492,1228.928589 
	C1153.455811,1230.283569 1152.594360,1232.008423 1152.021973,1233.704224 
	C1148.978760,1242.718140 1153.218872,1250.292114 1163.688965,1253.997681 
	C1168.837891,1255.820068 1174.283203,1256.788940 1179.493774,1258.458618 
	C1183.248291,1259.661743 1187.082520,1261.773071 1186.572021,1266.292358 
	C1186.054810,1270.871704 1181.976562,1272.427734 1177.821167,1273.119141 
	C1168.934937,1274.597534 1163.326660,1270.050293 1159.234741,1262.480225 
	C1155.913086,1263.900146 1152.803223,1265.229370 1149.727295,1266.544067 
	C1156.391357,1284.343384 1181.122070,1289.442871 1193.727539,1276.145874 
	C1200.698730,1268.792236 1199.496582,1257.384644 1190.909302,1251.979370 
	C1188.014282,1250.157227 1184.632568,1249.006592 1181.348755,1247.928223 
	C1176.625610,1246.377319 1171.649658,1245.528198 1167.038452,1243.723389 
	C1162.211792,1241.834473 1161.715088,1238.889038 1165.351196,1233.858765 
M391.733490,1235.105713 
	C390.109314,1232.440430 389.000793,1229.195312 386.770111,1227.212158 
	C377.990784,1219.407349 362.378082,1219.093018 352.864441,1226.096191 
	C343.847168,1232.734009 344.275146,1245.991211 353.964874,1251.579834 
	C357.494904,1253.615723 361.635681,1254.624390 365.546143,1255.960205 
	C369.613556,1257.349609 373.983765,1258.098877 377.738983,1260.054688 
	C379.688507,1261.070312 381.639862,1264.077515 381.658905,1266.202271 
	C381.675507,1268.055298 379.349823,1270.565308 377.420624,1271.684692 
	C370.696503,1275.586060 361.874054,1273.176147 357.102570,1266.567017 
	C356.168457,1265.273193 355.309448,1263.925171 354.370056,1262.534302 
	C350.996246,1263.974609 347.999664,1265.253784 345.035675,1266.518921 
	C351.376099,1284.483032 377.497559,1289.593994 389.514008,1275.514160 
	C391.163055,1273.581787 392.436798,1270.993774 392.977936,1268.511597 
	C394.917603,1259.615112 390.546173,1252.678223 380.650269,1249.157471 
	C375.037231,1247.160522 369.035431,1246.224609 363.492249,1244.078613 
	C361.274567,1243.219971 358.186096,1240.170288 358.411285,1238.514648 
	C358.725189,1236.206909 361.384766,1233.424805 363.731567,1232.338379 
	C370.265228,1229.313354 377.010498,1231.890015 382.948120,1238.924316 
	C385.639252,1237.826904 388.389709,1236.705200 391.733490,1235.105713 
M2103.619385,1221.151611 
	C2099.184082,1222.390137 2094.460449,1223.032959 2090.382568,1225.009155 
	C2084.548584,1227.836548 2081.695801,1233.066650 2082.015625,1239.714355 
	C2082.322021,1246.091919 2086.034668,1250.179443 2091.491455,1252.703003 
	C2094.632812,1254.155884 2098.070801,1254.976929 2101.393555,1256.024536 
	C2105.187256,1257.220947 2109.285400,1257.834229 2112.701660,1259.704834 
	C2114.806152,1260.857300 2117.159424,1263.945312 2117.061523,1266.055786 
	C2116.964355,1268.151611 2114.323486,1270.875488 2112.122559,1271.988159 
	C2105.480469,1275.346680 2097.439453,1272.992554 2093.006348,1267.001953 
	C2091.963135,1265.591919 2091.020752,1264.107178 2089.928223,1262.504639 
	C2086.630615,1263.946777 2083.655518,1265.247803 2080.734375,1266.525269 
	C2084.674561,1279.785400 2100.317871,1286.790405 2114.819580,1282.158691 
	C2123.461914,1279.398193 2128.906738,1272.997925 2129.007568,1265.480957 
	C2129.114990,1257.476807 2124.585205,1251.884888 2115.157227,1248.839355 
	C2109.948730,1247.156982 2104.446777,1246.269043 2099.415039,1244.201660 
	C2097.063477,1243.235352 2093.966797,1240.278931 2094.020020,1238.300293 
	C2094.076660,1236.195190 2097.090088,1233.196167 2099.458740,1232.305054 
	C2107.330078,1229.343750 2113.675049,1232.357544 2118.472656,1239.032471 
	C2121.781250,1237.592651 2124.906494,1236.232788 2128.212891,1234.793945 
	C2122.992432,1224.780151 2114.665771,1221.354126 2103.619385,1221.151611 
M1058.604980,1277.133179 
	C1061.288696,1273.868408 1063.972534,1270.603760 1067.057861,1266.850586 
	C1062.797241,1265.080200 1059.651978,1263.773315 1056.621460,1262.514038 
	C1047.991455,1274.057983 1036.963989,1276.464355 1028.431274,1268.988770 
	C1019.045898,1260.766235 1018.730713,1245.161865 1027.773071,1236.404541 
	C1036.236938,1228.207397 1046.163940,1230.169312 1056.280151,1242.206055 
	C1059.353027,1240.884888 1062.491699,1239.535400 1065.620117,1238.190308 
	C1062.072876,1229.680664 1055.828369,1224.104858 1047.941895,1222.109497 
	C1033.914307,1218.560425 1019.957458,1224.557983 1013.542053,1236.891968 
	C1006.841919,1249.773560 1009.770874,1267.135864 1020.201965,1276.370972 
	C1030.439575,1285.434814 1046.332886,1285.952881 1058.604980,1277.133179 
M1850.822266,1212.501953 
	C1850.822266,1235.393066 1850.822266,1258.284180 1850.822266,1281.145264 
	C1867.204834,1281.145264 1882.907837,1281.145264 1898.606689,1281.145264 
	C1898.606689,1277.642456 1898.606689,1274.540283 1898.606689,1270.962402 
	C1886.314575,1270.962402 1874.253540,1270.962402 1861.650024,1270.962402 
	C1861.650024,1245.794678 1861.650024,1221.106689 1861.650024,1196.405029 
	C1857.825317,1196.405029 1854.561646,1196.405029 1850.822266,1196.405029 
	C1850.822266,1201.599731 1850.822266,1206.551636 1850.822266,1212.501953 
M1502.046509,1234.626221 
	C1503.530640,1230.916016 1505.014771,1227.205933 1506.700806,1222.991089 
	C1503.833374,1222.991089 1501.979858,1223.207886 1500.195801,1222.947388 
	C1496.074219,1222.345459 1494.067505,1223.931885 1492.739258,1227.982788 
	C1490.106323,1236.011841 1486.829712,1243.831177 1483.777954,1251.721191 
	C1481.800659,1256.833130 1479.750366,1261.916748 1477.324097,1268.045410 
	C1472.578125,1255.463257 1468.254150,1244.005127 1463.934082,1232.545532 
	C1460.221924,1222.699219 1460.223755,1222.694458 1449.738281,1223.032349 
	C1449.320923,1223.045898 1448.910645,1223.277832 1448.212646,1223.497437 
	C1455.537231,1241.642822 1462.884277,1259.584961 1469.967529,1277.630737 
	C1471.238037,1280.867554 1472.954102,1281.956177 1476.232178,1281.583008 
	C1479.465210,1281.214600 1482.784302,1282.580688 1484.601074,1277.769165 
	C1489.988892,1263.500122 1496.004517,1249.468018 1502.046509,1234.626221 
M1995.389404,1235.988892 
	C1997.058838,1231.878662 1998.728271,1227.768555 2000.668579,1222.991699 
	C1997.844971,1222.991699 1995.712524,1223.229614 1993.654175,1222.940063 
	C1989.886230,1222.410156 1988.025269,1223.873779 1986.881470,1227.511230 
	C1985.142944,1233.040039 1982.846069,1238.394775 1980.749023,1243.808960 
	C1977.751587,1251.546997 1974.720581,1259.271851 1971.295166,1268.050293 
	C1966.575317,1255.619141 1962.268066,1244.325317 1957.999634,1233.016846 
	C1954.093994,1222.669312 1954.112427,1222.659546 1943.152588,1223.072021 
	C1942.902832,1223.081299 1942.662598,1223.343750 1942.172607,1223.633057 
	C1949.635010,1242.054199 1957.148315,1260.472412 1964.540894,1278.938843 
	C1966.414185,1283.618042 1970.235596,1280.847778 1973.142456,1281.496826 
	C1975.462646,1282.014893 1977.043823,1281.264038 1978.062744,1278.691772 
	C1983.625244,1264.649780 1989.397217,1250.690796 1995.389404,1235.988892 
M1587.587402,1222.995850 
	C1585.839355,1222.995850 1584.091431,1222.995850 1582.367920,1222.995850 
	C1582.367920,1226.707031 1582.367920,1229.656738 1582.367920,1232.899902 
	C1585.757080,1233.099609 1588.961182,1233.288452 1592.468628,1233.495117 
	C1592.468628,1244.430420 1592.809692,1254.926880 1592.381592,1265.391846 
	C1591.857300,1278.205933 1604.108521,1286.987793 1619.119019,1280.300537 
	C1617.984741,1277.238037 1616.847778,1274.167603 1615.732056,1271.155029 
	C1608.029053,1272.877319 1604.230957,1271.169556 1603.972412,1265.114868 
	C1603.526367,1254.674316 1603.848633,1244.200928 1603.848633,1233.071777 
	C1608.524170,1233.071777 1613.068481,1233.071777 1617.486084,1233.071777 
	C1617.486084,1229.324951 1617.486084,1226.259644 1617.486084,1222.824951 
	C1612.681641,1222.824951 1608.232788,1222.824951 1603.381348,1222.824951 
	C1603.381348,1216.831909 1603.381348,1211.215698 1603.381348,1205.511841 
	C1599.594116,1205.511841 1596.225464,1205.511841 1592.405762,1205.511841 
	C1592.405762,1211.441406 1592.405762,1217.030396 1592.405762,1222.995728 
	C1590.821777,1222.995728 1589.681396,1222.995728 1587.587402,1222.995850 
M1365.167603,1208.511841 
	C1365.167603,1204.556641 1365.167603,1200.601440 1365.167603,1196.411377 
	C1361.279785,1196.411377 1357.880127,1196.411377 1354.306885,1196.411377 
	C1354.306885,1224.804321 1354.306885,1252.986328 1354.306885,1281.209595 
	C1358.033569,1281.209595 1361.444946,1281.209595 1365.167603,1281.209595 
	C1365.167603,1257.100464 1365.167603,1233.304688 1365.167603,1208.511841 
M1636.820557,1241.500488 
	C1636.820557,1254.739014 1636.820557,1267.977417 1636.820557,1281.274414 
	C1640.826782,1281.274414 1644.093872,1281.274414 1647.573730,1281.274414 
	C1647.573730,1261.791748 1647.573730,1242.578247 1647.573730,1223.286377 
	C1643.890747,1223.286377 1640.489502,1223.286377 1636.820557,1223.286377 
	C1636.820557,1229.220337 1636.820557,1234.860718 1636.820557,1241.500488 
M419.150696,1281.525635 
	C419.826935,1279.971069 421.075073,1278.422119 421.090576,1276.860962 
	C421.239136,1261.915771 421.179413,1246.968384 421.179443,1232.021729 
	C421.179443,1229.098999 421.179443,1226.176392 421.179443,1223.338501 
	C417.171936,1223.338501 413.790710,1223.338501 410.499176,1223.338501 
	C410.499176,1242.845581 410.499176,1262.002319 410.499176,1281.540283 
	C413.311951,1281.540283 415.778625,1281.540283 419.150696,1281.525635 
M1916.086548,1223.773560 
	C1916.086548,1242.881714 1916.086548,1261.989746 1916.086548,1281.232056 
	C1919.880615,1281.232056 1923.286865,1281.232056 1926.901367,1281.232056 
	C1926.901367,1261.776855 1926.901367,1242.568726 1926.901367,1223.091431 
	C1923.348633,1223.091431 1920.052490,1223.091431 1916.086548,1223.773560 
M591.700012,1223.009766 
	C591.133301,1224.290771 590.095459,1225.564331 590.075439,1226.853882 
	C589.933350,1235.991577 589.999878,1245.132568 589.999878,1254.272461 
	C589.999878,1263.212402 589.999878,1272.152466 589.999878,1281.209717 
	C593.852966,1281.209717 597.239502,1281.209717 600.756348,1281.209717 
	C600.756348,1261.745850 600.756348,1242.551514 600.756348,1223.000610 
	C597.895630,1223.000610 595.273560,1223.000610 591.700012,1223.009766 
M1215.795532,1279.628418 
	C1216.810059,1280.392334 1217.824585,1281.156250 1218.961304,1282.012207 
	C1216.953979,1285.211304 1215.040894,1288.259766 1213.008179,1291.499268 
	C1214.911621,1292.710571 1216.562134,1293.760986 1218.487061,1294.985962 
	C1222.051636,1289.440552 1225.683716,1284.279785 1228.777222,1278.814453 
	C1231.031860,1274.831055 1230.722656,1270.586060 1226.853638,1267.602173 
	C1223.471558,1264.994019 1219.600952,1265.063232 1216.353638,1267.948730 
	C1212.697876,1271.197266 1212.632935,1275.099365 1215.795532,1279.628418 
M422.167755,1207.686401 
	C422.105560,1204.582153 422.955811,1201.006226 421.676636,1198.530884 
	C420.744965,1196.728149 416.657043,1195.129028 414.602264,1195.698364 
	C412.076019,1196.398438 408.919220,1199.171631 408.403381,1201.560059 
	C407.883850,1203.965820 409.552856,1207.803223 411.543304,1209.573853 
	C414.766510,1212.440918 418.666840,1211.424683 422.167755,1207.686401 
M1646.227173,1209.984009 
	C1651.431641,1205.408081 1651.278564,1198.763184 1645.851929,1196.149048 
	C1642.510742,1194.539307 1639.366455,1195.005615 1636.736084,1197.672485 
	C1633.916870,1200.531006 1633.641602,1203.954346 1635.609009,1207.248535 
	C1637.874146,1211.041504 1641.396240,1211.905273 1646.227173,1209.984009 
M1927.655029,1208.173096 
	C1929.983643,1204.989868 1930.412598,1201.294312 1927.745728,1198.608032 
	C1925.932129,1196.781128 1922.383667,1195.283081 1920.046631,1195.762451 
	C1917.731567,1196.237183 1914.683594,1199.154297 1914.293945,1201.404785 
	C1913.856567,1203.931763 1915.307495,1207.688599 1917.249390,1209.513550 
	C1920.175415,1212.263184 1924.026978,1211.572876 1927.655029,1208.173096 
M596.252441,1195.258545 
	C592.188538,1195.273682 588.610718,1196.853394 588.181152,1200.989014 
	C587.900452,1203.691162 589.018921,1207.503784 590.940430,1209.181152 
	C592.647400,1210.671387 596.877869,1210.949951 598.974426,1209.838745 
	C601.040466,1208.743774 602.593201,1205.350952 602.995239,1202.753418 
	C603.619507,1198.720215 600.682007,1196.517822 596.252441,1195.258545 
z"/>
<path fill="#E01705" opacity="1.000000" stroke="none" 
	d="
M931.833313,180.999954 
	C932.194275,168.197830 931.364197,155.719681 933.151184,143.628326 
	C937.589111,113.598457 965.925659,90.851456 996.539673,91.479111 
	C1028.623901,92.136917 1055.441528,115.932877 1059.125366,147.087814 
	C1059.554077,150.714279 1059.807251,154.384857 1059.808716,158.035110 
	C1059.845459,250.026077 1059.824585,342.017059 1059.847290,434.008057 
	C1059.852661,455.590118 1064.172729,476.112396 1076.662720,494.097260 
	C1096.011230,521.958008 1123.665283,534.302002 1156.854126,535.437683 
	C1180.064209,536.231934 1201.984131,531.654053 1220.935425,517.460266 
	C1247.351685,497.675446 1259.562500,470.499054 1259.898804,438.022217 
	C1260.319702,397.363861 1259.915161,356.697662 1260.026978,316.035278 
	C1260.115723,283.736450 1281.274902,258.035706 1312.645386,251.765060 
	C1350.471680,244.203964 1387.724976,272.820160 1388.638672,311.620972 
	C1389.611206,352.924530 1389.009766,394.268799 1388.838013,435.594208 
	C1388.751099,456.485809 1386.322876,477.202637 1380.065918,497.168060 
	C1354.126221,579.940857 1298.967163,632.119324 1214.207520,650.674133 
	C1161.248535,662.267334 1108.555298,658.369385 1058.954102,634.980652 
	C991.302185,603.080322 950.156738,549.674744 936.085022,476.123810 
	C933.226501,461.182770 932.085266,445.709198 932.015076,430.472565 
	C931.632751,347.483154 931.833313,264.491119 931.833313,180.999954 
z"/>
<path fill="#E01806" opacity="1.000000" stroke="none" 
	d="
M526.002441,904.020142 
	C528.874817,902.337097 531.416443,900.806763 533.936768,899.289307 
	C529.370789,891.379395 524.457886,883.878662 520.545715,875.888000 
	C511.496246,857.404541 508.595032,838.127930 516.076599,818.398743 
	C523.466797,798.910583 538.578369,787.858032 558.182861,782.848267 
	C582.023865,776.755920 605.543640,777.670349 627.455994,789.862183 
	C660.066101,808.005981 665.823792,849.542358 640.033997,876.627625 
	C628.476074,888.766052 614.398560,897.196777 599.814209,904.973572 
	C598.231628,905.817444 596.673889,906.708069 594.298645,908.023315 
	C609.202148,923.544678 623.785828,938.733032 638.844849,954.416382 
	C647.683411,940.622009 653.593750,926.302856 658.818359,910.796814 
	C662.355408,913.426575 665.607910,915.840698 668.856140,918.260620 
	C676.601013,924.030334 684.257507,929.924316 692.135010,935.506775 
	C694.810242,937.402588 695.448364,939.092773 693.957703,942.027100 
	C686.678284,956.357178 679.517090,970.747192 671.970398,985.801453 
	C684.143738,997.547791 697.177307,1010.124146 709.779968,1022.284668 
	C700.046814,1032.033813 690.454468,1041.641968 679.618958,1052.495239 
	C668.490356,1040.329590 656.700256,1027.440674 645.990234,1015.732666 
	C632.626770,1023.388000 621.577148,1031.416016 609.295959,1036.423340 
	C577.141541,1049.533325 545.075623,1048.688477 515.033752,1030.074341 
	C477.920319,1007.078430 469.919647,956.585754 498.552124,926.004150 
	C506.405548,917.616150 516.568604,911.390686 526.002441,904.020142 
M551.453003,999.180786 
	C574.903137,1008.253296 594.583679,1000.243652 613.102356,985.918274 
	C594.294189,966.376404 575.765930,947.125427 557.074097,927.704407 
	C542.863770,937.455139 528.669250,947.125671 529.099548,966.848938 
	C529.427917,981.903442 537.275024,992.456726 551.453003,999.180786 
M597.177795,863.670593 
	C604.730957,857.117310 610.034119,849.256592 610.795959,839.019165 
	C611.779358,825.805664 603.159729,815.632324 589.750854,813.873657 
	C573.648193,811.761719 560.548462,819.971741 557.984009,834.230408 
	C554.804810,851.907349 563.385864,865.911987 572.765625,880.630676 
	C581.097961,874.891541 588.881470,869.530396 597.177795,863.670593 
z"/>
<path fill="#E01806" opacity="1.000000" stroke="none" 
	d="
M397.921265,953.811401 
	C395.407166,974.050964 389.626465,992.706238 377.557251,1008.825806 
	C356.156433,1037.408447 326.644592,1048.843994 291.771851,1048.117065 
	C267.445099,1047.609985 245.020859,1041.181274 226.448715,1024.749634 
	C206.274216,1006.900269 196.422852,983.644714 193.092377,957.412781 
	C192.068619,949.349304 191.901138,941.137329 191.884384,932.992188 
	C191.780869,882.664001 191.832367,832.335510 191.832382,782.007080 
	C191.832382,780.197388 191.832397,778.387695 191.832397,776.289551 
	C208.522690,776.289551 224.942551,776.289551 242.000992,776.289551 
	C242.000992,777.968201 242.001007,779.728394 242.001007,781.488647 
	C242.001007,833.650208 241.986420,885.811829 242.012299,937.973389 
	C242.018051,949.556152 243.495316,960.907593 248.424606,971.538452 
	C257.238281,990.546692 275.300262,1000.943848 296.223236,1000.438416 
	C326.921875,999.696716 344.958893,979.094177 347.919952,948.974121 
	C348.374969,944.345642 348.449860,939.665527 348.453125,935.009094 
	C348.488953,884.014099 348.475616,833.019043 348.475616,782.024048 
	C348.475616,780.215271 348.475586,778.406494 348.475586,776.300415 
	C365.256500,776.300415 381.676544,776.300415 398.838684,776.300415 
	C398.838684,777.761536 398.838715,779.345459 398.838715,780.929443 
	C398.838715,833.924255 398.859711,886.919128 398.800903,939.913879 
	C398.795929,944.398010 398.257019,948.881409 397.921265,953.811401 
z"/>
<path fill="#E01806" opacity="1.000000" stroke="none" 
	d="
M1283.777100,1042.874756 
	C1260.431274,1050.770020 1237.845581,1051.142090 1216.715210,1037.809082 
	C1210.682983,1034.002808 1206.053223,1027.967041 1200.810425,1022.922302 
	C1199.834229,1021.983032 1199.001953,1020.894104 1198.184814,1019.966797 
	C1198.821045,1054.115112 1199.450439,1087.894897 1200.087891,1122.106812 
	C1183.231934,1122.106812 1167.191284,1122.106812 1150.811279,1122.106812 
	C1150.811279,1034.884766 1150.811279,947.667236 1150.811279,860.224182 
	C1165.874512,860.224182 1180.818848,860.224182 1196.451660,860.224182 
	C1196.451660,867.370850 1196.451660,874.562439 1196.451660,882.861023 
	C1198.302979,881.631287 1199.415894,881.251160 1199.967651,880.473083 
	C1215.689087,858.303284 1238.099365,851.599426 1263.602051,854.684875 
	C1303.894897,859.559631 1335.341187,891.887207 1340.971924,932.838623 
	C1345.005859,962.176208 1340.331909,989.554626 1322.158569,1013.750000 
	C1312.218750,1026.983765 1299.425049,1036.505127 1283.777100,1042.874756 
M1282.246948,984.705261 
	C1291.645020,972.622192 1294.425415,958.858765 1293.061279,943.857117 
	C1290.083008,911.106995 1256.042603,890.304871 1226.038574,903.042847 
	C1206.861328,911.184387 1195.816406,930.273315 1196.524658,954.051819 
	C1197.160400,975.396362 1209.741089,993.423462 1228.716064,1000.179626 
	C1247.947510,1007.027039 1267.645020,1001.502869 1282.246948,984.705261 
z"/>
<path fill="#E01806" opacity="1.000000" stroke="none" 
	d="
M954.859741,891.126770 
	C924.134705,857.975098 933.672546,806.301147 971.195679,783.587402 
	C1004.967651,763.144348 1054.202759,765.930664 1083.363281,790.211426 
	C1095.039185,799.933472 1102.808472,812.275146 1108.110229,826.787170 
	C1093.242188,833.032288 1078.597778,839.183411 1063.777222,845.408508 
	C1059.545166,835.081421 1053.805664,826.092163 1044.040894,821.306091 
	C1028.515869,813.696533 1012.604919,814.363708 997.723145,823.178772 
	C982.128967,832.415710 981.173096,852.010071 995.337219,863.443909 
	C1006.011292,872.060364 1018.716858,876.676636 1031.510620,880.912598 
	C1048.098755,886.404846 1064.663208,891.935791 1079.593750,901.253540 
	C1107.477783,918.655212 1119.689575,944.053101 1116.520508,976.526917 
	C1113.238159,1010.162781 1093.245728,1031.129517 1062.558838,1041.656616 
	C1026.864380,1053.901489 992.556091,1050.334106 961.899719,1026.811157 
	C944.041077,1013.107971 932.978882,994.580688 926.534058,972.563416 
	C942.280640,966.349060 957.815063,960.218506 973.502808,954.027405 
	C975.324829,958.717163 976.835571,963.454468 978.952942,967.903076 
	C986.589478,983.947449 997.524719,996.410217 1016.089966,999.495605 
	C1028.890503,1001.622925 1041.326172,1000.268555 1052.650879,993.284607 
	C1068.242554,983.669128 1071.844360,962.101318 1059.136230,948.862427 
	C1053.304810,942.787476 1045.721924,937.799744 1038.046509,934.221069 
	C1024.828369,928.058167 1010.960510,923.265991 997.284119,918.114319 
	C981.351624,912.112793 966.906250,903.850891 954.859741,891.126770 
z"/>
<path fill="#E01806" opacity="1.000000" stroke="none" 
	d="
M1807.045166,867.001709 
	C1840.742432,847.479004 1884.885376,849.878967 1914.015503,873.089355 
	C1932.739380,888.008118 1941.869507,908.421387 1944.877319,931.638611 
	C1946.168457,941.603821 1945.927002,951.767517 1946.407593,962.410706 
	C1899.851074,962.410706 1854.620728,962.410706 1809.413940,962.410706 
	C1808.780518,978.956848 1823.227417,996.496521 1838.378296,1001.478149 
	C1860.813599,1008.854858 1885.980957,1005.822876 1902.796143,978.135376 
	C1916.093628,984.710388 1929.435547,991.307373 1943.268921,998.147400 
	C1938.265015,1007.658997 1931.754517,1015.692749 1924.177002,1022.881592 
	C1901.200562,1044.679932 1873.399902,1051.147217 1842.902466,1047.150635 
	C1801.271240,1041.695068 1771.304932,1014.205872 1762.547729,973.349670 
	C1753.657715,931.874390 1769.964844,889.251099 1807.045166,867.001709 
M1874.499878,927.544373 
	C1882.552124,927.544373 1890.604492,927.544373 1898.801025,927.544373 
	C1894.537109,905.621765 1875.495117,892.544678 1851.643677,894.096130 
	C1828.229858,895.619019 1813.193359,914.953552 1812.043335,927.544250 
	C1832.544189,927.544250 1853.021973,927.544250 1874.499878,927.544373 
z"/>
<path fill="#E01806" opacity="1.000000" stroke="none" 
	d="
M1374.869141,949.908020 
	C1390.063843,931.766724 1410.048706,925.057983 1432.504395,924.017578 
	C1450.464233,923.185364 1468.003784,925.456665 1484.871826,932.142090 
	C1487.793457,914.942566 1476.375366,899.227844 1457.805298,895.174194 
	C1438.927856,891.053467 1422.181763,895.457642 1408.222412,909.195496 
	C1406.450439,910.939270 1404.758667,912.764343 1402.719482,914.872375 
	C1390.992676,906.858154 1379.392090,898.930237 1367.052856,890.497559 
	C1370.887451,886.460999 1374.275269,882.475769 1378.088501,878.950439 
	C1398.614746,859.973999 1423.489624,852.978516 1450.727661,854.236633 
	C1462.414185,854.776489 1474.369751,856.408203 1485.545166,859.746521 
	C1513.935303,868.227356 1531.453247,890.836670 1532.855347,920.492004 
	C1533.908447,942.764160 1533.648315,965.101807 1533.813232,987.411438 
	C1533.946167,1005.386902 1533.840210,1023.364136 1533.840210,1041.754395 
	C1517.747070,1041.754395 1501.876587,1041.754395 1485.536377,1041.754395 
	C1485.536377,1035.696411 1485.536377,1029.593994 1485.536377,1021.984619 
	C1483.250000,1023.568665 1481.705933,1024.221558 1480.745117,1025.364746 
	C1452.432983,1059.046387 1406.934570,1050.757690 1384.464478,1032.355225 
	C1360.056763,1012.366028 1355.650513,976.233521 1374.869141,949.908020 
M1419.398560,1002.113770 
	C1432.557861,1012.446167 1446.872681,1012.267578 1461.204590,1005.642212 
	C1475.739380,998.923096 1483.901367,987.087646 1485.200928,970.958557 
	C1485.300049,969.728088 1483.788574,967.581848 1482.575073,967.160828 
	C1475.383179,964.665710 1468.192993,961.759033 1460.746948,960.495911 
	C1448.861816,958.479858 1436.818237,958.370728 1425.646729,964.179932 
	C1410.412354,972.101746 1407.286621,989.626709 1419.398560,1002.113770 
z"/>
<path fill="#E01806" opacity="1.000000" stroke="none" 
	d="
M2043.010620,966.964294 
	C2032.311890,964.230713 2021.848389,962.101807 2011.795654,958.742859 
	C2000.738770,955.048218 1991.254639,948.466064 1984.008545,939.155579 
	C1968.029175,918.623718 1971.561890,889.213379 1992.104858,872.016785 
	C2007.219849,859.364258 2025.279297,854.756897 2044.454590,854.149597 
	C2067.090088,853.432617 2088.558594,857.579956 2106.932373,871.960388 
	C2115.207275,878.436523 2120.986816,886.882690 2125.284912,896.986633 
	C2111.287842,902.698914 2097.496582,908.327209 2083.126221,914.191833 
	C2078.404541,904.313232 2070.371094,898.297180 2059.918457,895.489075 
	C2049.619141,892.721985 2039.491211,892.860291 2029.853882,897.991089 
	C2025.577759,900.267761 2022.091431,903.358154 2022.038818,908.696899 
	C2021.983276,914.323669 2025.507568,917.882385 2030.247437,919.498657 
	C2040.599487,923.028687 2051.202393,925.814880 2061.646484,929.085327 
	C2074.135742,932.996033 2087.180176,935.808533 2098.884277,941.399475 
	C2118.857910,950.940613 2129.669434,967.556335 2128.893311,990.221252 
	C2128.273926,1008.318604 2118.835205,1021.850403 2104.683838,1032.412354 
	C2073.595459,1055.615479 2013.166382,1054.656494 1983.444214,1021.602539 
	C1976.874512,1014.296326 1971.944946,1005.515259 1965.695068,996.608032 
	C1981.496094,989.830322 1995.790283,983.698914 2010.582886,977.353699 
	C2011.426025,978.854004 2012.221558,980.228882 2012.979126,981.624207 
	C2023.437134,1000.884033 2043.608887,1009.510132 2064.640381,1003.638550 
	C2066.703125,1003.062622 2068.727783,1002.210999 2070.626709,1001.214111 
	C2075.672607,998.565308 2079.967529,995.206238 2079.977051,988.790771 
	C2079.986816,982.127563 2076.216064,977.524841 2070.478271,975.384888 
	C2061.650146,972.092407 2052.462158,969.764038 2043.010620,966.964294 
z"/>
<path fill="#E01806" opacity="1.000000" stroke="none" 
	d="
M1624.509399,911.498779 
	C1601.364868,932.197693 1602.539795,982.147888 1634.977173,998.047363 
	C1657.682251,1009.176453 1683.701904,1001.623718 1696.398315,979.763550 
	C1697.055664,978.631836 1697.794800,977.547668 1698.592407,976.288940 
	C1713.398804,982.701721 1728.018433,989.033691 1743.473877,995.727539 
	C1740.101440,1000.933411 1737.190918,1006.099060 1733.647095,1010.785767 
	C1713.136353,1037.910767 1685.574951,1049.458130 1651.879883,1048.086060 
	C1605.793457,1046.209351 1570.309814,1016.887024 1561.699219,971.569702 
	C1553.016724,925.875061 1572.360962,882.854858 1612.096313,863.660950 
	C1643.306885,848.585083 1694.447021,848.988403 1723.917358,880.275574 
	C1731.043823,887.841492 1736.975708,896.143372 1741.261597,906.270264 
	C1726.279541,912.518005 1711.500122,918.681274 1696.744019,924.834778 
	C1679.802368,891.529785 1642.052246,894.664734 1624.509399,911.498779 
z"/>
<path fill="#E01907" opacity="1.000000" stroke="none" 
	d="
M843.843018,932.000000 
	C843.843018,968.808838 843.843018,1005.117615 843.843018,1041.798828 
	C826.981628,1041.798828 810.410583,1041.798828 793.496948,1041.798828 
	C793.496948,953.502075 793.496948,865.094849 793.496948,776.341492 
	C810.003052,776.341492 826.578979,776.341492 843.843018,776.341492 
	C843.843018,827.983398 843.843018,879.741699 843.843018,932.000000 
z"/>
<path fill="#E01908" opacity="1.000000" stroke="none" 
	d="
M1336.327515,92.615425 
	C1366.702637,98.128128 1388.848633,124.849564 1389.003418,155.783295 
	C1389.157104,186.483658 1367.049683,213.416504 1337.042969,219.085342 
	C1302.229248,225.662338 1269.468262,204.247940 1261.667725,169.816010 
	C1253.986206,135.909073 1274.538330,101.986610 1308.746704,93.703789 
	C1317.391479,91.610657 1326.834595,92.814980 1336.327515,92.615425 
M1348.022217,122.896431 
	C1345.320312,108.438362 1334.932617,100.189819 1320.512817,101.051903 
	C1299.051392,102.334969 1279.343384,117.768768 1272.320923,138.791824 
	C1265.425171,159.435562 1272.017944,183.393448 1288.467773,197.314926 
	C1290.098267,198.694733 1291.902588,199.869034 1293.915771,201.352066 
	C1292.896729,195.840897 1291.432739,191.171295 1291.267334,186.456131 
	C1290.617310,167.941238 1304.051758,154.025558 1324.918335,151.108154 
	C1340.006470,148.998642 1348.395508,139.104736 1348.022217,122.896431 
M1315.068848,193.239960 
	C1319.292236,199.971344 1328.938965,199.466660 1333.003296,194.225800 
	C1336.416870,189.823944 1336.356201,183.641159 1332.717163,179.591400 
	C1329.030273,175.488388 1322.974854,174.714310 1318.259644,177.743225 
	C1313.326294,180.912308 1312.055786,186.210571 1315.068848,193.239960 
z"/>
<path fill="#E11B09" opacity="1.000000" stroke="none" 
	d="
M748.538086,1266.993408 
	C748.537292,1271.490356 748.627808,1275.490967 748.520874,1279.486450 
	C747.913208,1302.200806 729.126221,1314.898193 707.646240,1307.147217 
	C699.975830,1304.379517 695.250732,1299.815918 692.278015,1292.008545 
	C695.549927,1290.592041 698.845886,1289.165161 702.087952,1287.761597 
	C709.662842,1298.194580 717.281738,1301.206665 726.672668,1297.645264 
	C734.794556,1294.565186 738.589294,1286.591309 737.583923,1275.823608 
	C732.762207,1278.132935 727.899780,1281.579102 722.531006,1282.802368 
	C711.065857,1285.414185 700.693481,1280.221924 694.507202,1270.101685 
	C686.207092,1256.523438 688.821655,1238.026123 700.506958,1227.655396 
	C710.519653,1218.769165 725.169556,1218.960815 734.969604,1228.101685 
	C735.645752,1228.732422 736.351562,1229.331177 737.645020,1230.478027 
	C737.645020,1227.648560 737.645020,1225.576660 737.645020,1223.248779 
	C741.295593,1223.248779 744.576050,1223.248779 748.538147,1223.248779 
	C748.538147,1237.646729 748.538147,1252.070801 748.538086,1266.993408 
M705.614075,1238.215210 
	C704.201782,1241.365479 702.210876,1244.387207 701.477661,1247.688232 
	C698.373596,1261.662476 707.948547,1273.933228 720.989990,1273.102051 
	C732.340332,1272.378540 739.828796,1260.579956 737.248657,1247.556763 
	C735.782471,1240.156006 731.923218,1234.521729 724.587463,1232.294922 
	C717.507019,1230.145630 711.127930,1231.994385 705.614075,1238.215210 
z"/>
<path fill="#E11B0A" opacity="1.000000" stroke="none" 
	d="
M441.263855,1292.194336 
	C444.594604,1290.482056 447.765350,1289.102417 450.866150,1287.753296 
	C458.225891,1298.154663 465.960999,1301.202515 475.433685,1297.639038 
	C483.536743,1294.590698 487.321564,1286.683838 486.184082,1275.851562 
	C481.593109,1278.160156 477.075226,1281.450317 472.042755,1282.754028 
	C461.020203,1285.609619 450.312836,1280.945068 444.026306,1271.118286 
	C436.794891,1259.814453 436.473236,1247.849365 442.545532,1236.041016 
	C449.691345,1222.145142 469.005035,1213.812988 486.111267,1229.973389 
	C486.321198,1227.643677 486.504120,1225.613892 486.713196,1223.293701 
	C490.036255,1223.293701 493.277588,1223.293701 496.877014,1223.293701 
	C496.970245,1224.137695 497.162109,1225.069824 497.162994,1226.002075 
	C497.180603,1244.154053 497.279510,1262.307007 497.138245,1280.457886 
	C497.048523,1291.989258 492.671204,1301.405762 481.672729,1306.234375 
	C470.206543,1311.268311 458.785522,1310.495117 448.699127,1302.757202 
	C445.458435,1300.271118 443.596497,1295.988037 441.263855,1292.194336 
M459.583740,1233.781372 
	C449.909058,1240.346558 446.714142,1252.906738 452.268890,1263.239014 
	C455.767212,1269.746216 461.167206,1273.370850 468.792999,1273.152100 
	C476.466187,1272.932007 481.923828,1268.925537 484.429871,1262.089478 
	C486.012878,1257.771118 486.474426,1252.619385 485.925842,1248.022095 
	C484.350647,1234.822266 472.612701,1228.378418 459.583740,1233.781372 
z"/>
<path fill="#E11B0A" opacity="1.000000" stroke="none" 
	d="
M1737.632324,1261.179688 
	C1735.133667,1248.424805 1737.102783,1237.195190 1746.637085,1228.269287 
	C1757.060547,1218.510864 1771.751831,1218.738159 1782.142212,1228.540527 
	C1782.594360,1228.967163 1783.071655,1229.367065 1784.067383,1230.248901 
	C1784.320557,1227.580933 1784.512817,1225.555420 1784.729858,1223.268311 
	C1788.082642,1223.268311 1791.325195,1223.268311 1794.579346,1223.268311 
	C1794.755615,1223.545654 1795.070190,1223.809692 1795.070679,1224.074219 
	C1795.107788,1243.560303 1795.359741,1263.050171 1795.048218,1282.531128 
	C1794.848022,1295.044922 1786.883301,1304.865234 1775.490356,1307.958374 
	C1762.058350,1311.604980 1748.217163,1307.281372 1741.566772,1297.300049 
	C1740.572266,1295.807373 1739.835938,1294.142700 1738.726074,1292.086670 
	C1742.306152,1290.568481 1745.602295,1289.170654 1748.837891,1287.798462 
	C1757.204956,1298.585571 1764.336182,1301.295898 1773.836914,1297.452148 
	C1781.707642,1294.268066 1785.279785,1286.606567 1784.070557,1274.688843 
	C1775.615967,1283.170532 1765.770752,1285.913818 1754.877563,1281.688354 
	C1745.790894,1278.163696 1740.238403,1271.028564 1737.632324,1261.179688 
M1771.601929,1232.250000 
	C1761.308472,1230.392944 1754.029175,1233.691284 1750.001465,1242.037598 
	C1745.698975,1250.953369 1747.637085,1262.366699 1754.537476,1268.663330 
	C1759.526123,1273.215332 1765.330566,1274.254761 1771.651978,1272.309082 
	C1779.045044,1270.033447 1783.831787,1263.228149 1784.438965,1254.493652 
	C1785.161621,1244.096313 1781.085083,1236.722656 1771.601929,1232.250000 
z"/>
<path fill="#E01A08" opacity="1.000000" stroke="none" 
	d="
M226.087982,1196.878052 
	C249.813278,1200.909302 262.778229,1218.650879 260.924805,1243.999878 
	C259.343842,1265.622925 242.930832,1280.919312 220.429688,1281.493042 
	C211.130524,1281.730103 201.820236,1281.532349 192.172150,1281.532349 
	C192.172150,1252.993652 192.172150,1224.811523 192.172150,1196.834839 
	C203.454163,1196.834839 214.554459,1196.834839 226.087982,1196.878052 
M246.844376,1254.069946 
	C258.054779,1223.182007 238.534149,1202.270996 203.232056,1207.517700 
	C203.232056,1228.530029 203.232056,1249.562134 203.232056,1270.558716 
	C210.059540,1270.558716 216.702362,1271.039551 223.248474,1270.448730 
	C233.694550,1269.505981 241.698776,1264.359497 246.844376,1254.069946 
z"/>
<path fill="#E11B09" opacity="1.000000" stroke="none" 
	d="
M1295.538086,1248.127197 
	C1295.537476,1255.910278 1295.537476,1263.206909 1295.537476,1270.927979 
	C1308.477661,1270.927979 1321.066406,1270.927979 1333.911621,1270.927979 
	C1333.911621,1274.583740 1333.911621,1277.814575 1333.911621,1281.228760 
	C1317.324097,1281.228760 1300.921875,1281.228760 1284.395874,1281.228760 
	C1284.395874,1252.850342 1284.395874,1224.781128 1284.395874,1196.432617 
	C1300.881104,1196.432617 1317.126709,1196.432617 1333.774902,1196.432617 
	C1333.774902,1199.755859 1333.774902,1203.120239 1333.774902,1206.940674 
	C1321.253418,1206.940674 1308.671753,1206.940674 1295.816650,1206.940674 
	C1295.816650,1215.950317 1295.816650,1224.522217 1295.816650,1233.682861 
	C1307.268188,1233.682861 1318.654541,1233.682861 1330.282227,1233.682861 
	C1330.282227,1237.362671 1330.282227,1240.458618 1330.282227,1244.176514 
	C1319.885254,1244.176514 1309.625000,1244.242920 1299.366699,1244.130737 
	C1296.740234,1244.102051 1295.107056,1244.599731 1295.538086,1248.127197 
z"/>
<path fill="#E11B0A" opacity="1.000000" stroke="none" 
	d="
M797.822998,1217.943726 
	C796.776428,1207.469360 805.640137,1197.436035 816.836487,1195.092651 
	C831.856079,1191.949097 845.382324,1198.566772 850.311523,1211.786987 
	C847.105774,1213.195435 843.856445,1214.623169 840.643738,1216.034668 
	C833.865784,1206.161133 826.690735,1202.979858 818.116455,1206.109619 
	C813.313293,1207.862793 809.532593,1210.895142 809.121399,1216.373413 
	C808.719666,1221.724731 811.856384,1225.078735 816.536011,1227.064331 
	C823.716248,1230.110840 831.054321,1232.810059 838.116211,1236.104980 
	C846.657837,1240.090454 852.237244,1246.600830 852.954956,1256.392212 
	C853.824219,1268.251343 848.208191,1276.908325 837.036499,1281.267700 
	C818.838867,1288.369019 798.859253,1278.536621 794.871033,1260.144287 
	C798.099915,1258.792358 801.403015,1257.409424 804.840881,1255.969971 
	C806.250000,1258.670776 807.344910,1261.255737 808.852600,1263.571899 
	C814.325134,1271.979004 823.929016,1274.997559 832.831482,1271.229980 
	C837.606750,1269.208984 840.774597,1265.872559 841.397461,1260.506104 
	C842.017273,1255.165527 840.032776,1250.818359 835.552185,1248.160645 
	C831.444397,1245.724243 826.871582,1244.067383 822.489075,1242.099609 
	C817.500732,1239.859619 812.238525,1238.091797 807.562073,1235.328857 
	C801.328003,1231.645630 797.877197,1225.876099 797.822998,1217.943726 
z"/>
<path fill="#E11B09" opacity="1.000000" stroke="none" 
	d="
M870.825073,1226.143799 
	C871.467468,1224.772339 872.033630,1223.203857 872.763916,1223.123169 
	C875.511414,1222.819946 878.312378,1223.001465 881.458984,1223.001465 
	C881.458984,1225.404907 881.458984,1227.348145 881.458984,1229.191284 
	C886.054077,1226.713379 890.148254,1223.515137 894.777405,1222.200195 
	C907.235229,1218.661255 918.766235,1224.090454 925.315186,1236.033569 
	C930.690125,1245.835815 931.008850,1256.176514 926.540894,1266.270508 
	C918.856689,1283.630371 898.136719,1290.297974 881.951599,1274.932495 
	C881.951599,1285.747925 881.951599,1296.231934 881.951599,1306.941650 
	C878.190674,1306.941650 874.787659,1306.941650 870.824219,1306.941650 
	C870.824219,1280.082764 870.824219,1253.356201 870.825073,1226.143799 
M887.341553,1268.154175 
	C890.875488,1269.795410 894.293823,1272.491821 897.963440,1272.893799 
	C913.208374,1274.564209 923.193726,1257.375366 916.076172,1242.239624 
	C912.786255,1235.243652 906.385864,1231.183594 899.007751,1231.554565 
	C891.180664,1231.947876 885.765991,1236.147095 883.178162,1243.240967 
	C880.046326,1251.825928 880.673706,1260.234863 887.341553,1268.154175 
z"/>
<path fill="#E11C0A" opacity="1.000000" stroke="none" 
	d="
M1105.461792,1283.376099 
	C1086.497559,1281.171509 1075.511353,1264.906372 1079.186768,1245.021606 
	C1082.391602,1227.683960 1098.555786,1217.657959 1116.022339,1222.174316 
	C1128.810791,1225.480957 1136.721191,1238.213379 1135.568970,1254.333374 
	C1120.591675,1254.333374 1105.552490,1254.333374 1090.537720,1254.333374 
	C1090.308960,1263.077759 1094.822144,1269.462769 1102.697510,1272.184692 
	C1111.213989,1275.128052 1117.784912,1272.500488 1125.223145,1262.830933 
	C1128.293945,1264.332031 1131.485229,1265.891968 1135.010376,1267.615112 
	C1128.452515,1279.243286 1118.588135,1283.936890 1105.461792,1283.376099 
M1114.437134,1245.154175 
	C1117.520264,1245.154175 1120.603394,1245.154175 1123.776489,1245.154175 
	C1121.911499,1235.735352 1115.952515,1231.168579 1106.666016,1231.540405 
	C1098.576660,1231.864380 1092.545776,1237.215332 1091.585327,1244.925171 
	C1091.908203,1244.991455 1092.230957,1245.114624 1092.553955,1245.115601 
	C1099.521729,1245.136719 1106.489380,1245.144165 1114.437134,1245.154175 
z"/>
<path fill="#E11B0A" opacity="1.000000" stroke="none" 
	d="
M1393.943604,1260.675903 
	C1401.385132,1276.448608 1415.935913,1277.341431 1428.211304,1262.874023 
	C1431.204712,1264.368286 1434.278076,1265.902466 1437.335571,1267.428833 
	C1433.447876,1277.209961 1422.824585,1283.674072 1410.769409,1283.513550 
	C1398.215820,1283.346558 1388.793457,1277.536255 1384.134644,1265.991089 
	C1379.087280,1253.483154 1379.992310,1241.004028 1389.280029,1230.442505 
	C1397.824463,1220.726196 1408.800781,1219.238403 1420.746216,1222.922852 
	C1426.566528,1224.717896 1430.900879,1228.499390 1434.020264,1233.656128 
	C1437.754517,1239.829346 1438.697266,1246.659790 1438.736694,1254.377808 
	C1423.467896,1254.377808 1408.430298,1254.377808 1392.775024,1254.377808 
	C1393.221191,1256.833984 1393.534424,1258.557739 1393.943604,1260.675903 
M1422.162354,1245.167114 
	C1423.598267,1245.091675 1425.034180,1245.016113 1426.508179,1244.938599 
	C1424.960571,1236.066406 1419.019043,1231.487183 1410.028198,1231.416870 
	C1403.172119,1231.363159 1394.501099,1237.083740 1394.408447,1245.167114 
	C1403.350708,1245.167114 1412.292603,1245.167114 1422.162354,1245.167114 
z"/>
<path fill="#E11B0A" opacity="1.000000" stroke="none" 
	d="
M2020.118896,1276.906738 
	C2005.737793,1265.097656 2006.517334,1239.910889 2018.775513,1228.776367 
	C2027.548950,1220.806885 2037.667114,1219.330200 2048.521729,1222.848145 
	C2058.894531,1226.209717 2064.174561,1234.157715 2065.984619,1244.588867 
	C2066.516113,1247.652954 2066.650146,1250.785889 2067.018066,1254.394043 
	C2051.523926,1254.394043 2036.589111,1254.394043 2021.726562,1254.394043 
	C2020.665894,1261.536255 2024.965698,1268.563232 2031.964111,1271.694092 
	C2040.576416,1275.546753 2047.878296,1272.959351 2056.207764,1262.914307 
	C2059.218018,1264.386230 2062.303711,1265.895142 2065.377441,1267.398193 
	C2058.722900,1284.575928 2033.098633,1288.391846 2020.118896,1276.906738 
M2022.309692,1244.841919 
	C2033.045532,1244.841919 2043.781372,1244.841919 2054.548096,1244.841919 
	C2053.469482,1238.610107 2050.803955,1234.995483 2045.863647,1232.915161 
	C2035.656006,1228.616821 2026.371216,1232.956299 2022.309692,1244.841919 
z"/>
<path fill="#E11C0A" opacity="1.000000" stroke="none" 
	d="
M291.855804,1281.326904 
	C270.478973,1271.165894 267.375458,1239.987915 286.213562,1226.347534 
	C295.180023,1219.855225 305.196869,1219.470337 315.151550,1223.697998 
	C325.399536,1228.050293 329.623108,1236.875000 330.907654,1247.383057 
	C331.166046,1249.496948 330.944977,1251.669312 330.944977,1254.487915 
	C315.834015,1254.487915 300.805969,1254.487915 285.782257,1254.487915 
	C285.964417,1263.364990 290.347992,1269.547607 297.843964,1272.156250 
	C306.421906,1275.141357 312.606934,1272.675293 320.666016,1262.843506 
	C323.650787,1264.336426 326.721863,1265.872559 329.780731,1267.402588 
	C324.877472,1280.607544 308.427551,1286.724121 291.855804,1281.326904 
M293.086975,1234.427124 
	C290.667542,1237.571167 288.248108,1240.715210 285.119934,1244.780273 
	C297.587982,1244.780273 308.237640,1244.780273 318.947021,1244.780273 
	C316.905334,1232.882812 305.201050,1228.059570 293.086975,1234.427124 
z"/>
<path fill="#E11C0A" opacity="1.000000" stroke="none" 
	d="
M948.059814,1234.933350 
	C946.829529,1234.071777 945.915771,1233.375854 945.018921,1232.692627 
	C953.296875,1218.624756 977.253418,1218.005737 987.638489,1227.543457 
	C992.035461,1231.581787 994.015625,1236.768677 994.698547,1242.546143 
	C994.854248,1243.863037 994.843567,1245.203979 994.844727,1246.533936 
	C994.855164,1257.995605 994.850708,1269.457275 994.850708,1281.228882 
	C991.225342,1281.228882 987.961914,1281.228882 984.280090,1281.228882 
	C984.114868,1279.124634 983.943115,1276.937500 983.716553,1274.052002 
	C976.285278,1283.335815 967.171021,1285.484985 956.716980,1281.990112 
	C947.634155,1278.953857 942.701904,1271.619995 942.992249,1262.270020 
	C943.250549,1253.953369 948.612366,1247.468872 957.693237,1244.952148 
	C966.452820,1242.524170 975.123657,1243.046143 983.569153,1246.549683 
	C984.323608,1240.231812 981.571594,1235.462524 975.589661,1232.665405 
	C968.586609,1229.390625 961.474243,1231.406860 954.492188,1238.850830 
	C952.504822,1237.631592 950.440552,1236.365234 948.059814,1234.933350 
M968.865845,1252.677246 
	C966.766418,1253.090210 964.580383,1253.258057 962.584045,1253.963013 
	C957.019165,1255.927856 954.051697,1260.004517 954.568848,1264.556152 
	C955.090332,1269.145752 959.430603,1272.765259 965.144104,1273.375366 
	C973.003662,1274.214600 981.281189,1268.261841 983.575623,1260.421509 
	C984.462830,1257.390015 983.696716,1255.463745 980.771606,1254.727661 
	C977.114441,1253.807495 973.368225,1253.241333 968.865845,1252.677246 
z"/>
<path fill="#E11B09" opacity="1.000000" stroke="none" 
	d="
M1568.007446,1265.996094 
	C1568.007446,1271.312744 1568.007446,1276.130493 1568.007446,1281.241455 
	C1564.333618,1281.241455 1560.922729,1281.241455 1557.366211,1281.241455 
	C1557.216187,1278.941162 1557.081299,1276.873047 1556.892944,1273.984863 
	C1550.909668,1281.432739 1543.878784,1284.451416 1535.017822,1283.218750 
	C1523.941406,1281.677734 1516.140503,1273.777954 1516.020142,1263.578247 
	C1515.899170,1253.325806 1523.346924,1245.111938 1534.919922,1244.166260 
	C1542.057617,1243.583008 1549.329468,1244.640259 1556.735596,1244.969604 
	C1557.545410,1240.796265 1555.228882,1236.161987 1550.008545,1233.235107 
	C1542.792969,1229.189575 1535.931274,1230.823608 1527.455444,1238.794434 
	C1524.371338,1236.842773 1521.208740,1234.841187 1518.043701,1232.838135 
	C1527.258667,1218.469482 1548.068726,1219.133301 1557.577515,1225.150269 
	C1564.669067,1229.637573 1567.741943,1236.386597 1567.950073,1244.516602 
	C1568.128906,1251.506104 1568.000244,1258.503296 1568.007446,1265.996094 
M1527.844238,1262.711548 
	C1527.396118,1267.843750 1530.301880,1270.770386 1534.610840,1272.514771 
	C1543.451660,1276.093994 1555.837646,1268.813477 1556.826416,1259.304810 
	C1556.970947,1257.914429 1555.529419,1255.583740 1554.213501,1254.948853 
	C1547.996704,1251.948608 1541.257935,1251.407227 1535.049316,1254.346680 
	C1532.134888,1255.726685 1530.266724,1259.316162 1527.844238,1262.711548 
z"/>
<path fill="#E11B09" opacity="1.000000" stroke="none" 
	d="
M622.152832,1271.942383 
	C622.152832,1255.507935 622.152832,1239.563232 622.152832,1223.306885 
	C625.863464,1223.306885 629.250427,1223.306885 632.996582,1223.306885 
	C632.996582,1225.464844 632.996582,1227.535400 632.996582,1230.563232 
	C638.599487,1224.500854 644.617310,1221.127319 652.159424,1221.152954 
	C664.542175,1221.195068 673.087158,1228.319946 673.710449,1240.637085 
	C674.389465,1254.056030 673.864685,1267.536011 673.864685,1281.262695 
	C670.263855,1281.262695 666.844604,1281.262695 662.823975,1281.262695 
	C662.823975,1272.042358 662.823914,1262.951782 662.823914,1253.861206 
	C662.823914,1251.531738 662.834351,1249.202148 662.822144,1246.872681 
	C662.771606,1237.236816 658.906860,1232.353516 650.756409,1231.614868 
	C642.402893,1230.857788 635.478210,1235.958862 634.076538,1244.628540 
	C633.314514,1249.341797 633.602051,1254.236694 633.555847,1259.050903 
	C633.485840,1266.335449 633.537598,1273.620972 633.537598,1281.217529 
	C629.677856,1281.217529 626.270508,1281.217529 622.152832,1281.217529 
	C622.152832,1278.269409 622.152832,1275.350708 622.152832,1271.942383 
z"/>
<path fill="#E11B09" opacity="1.000000" stroke="none" 
	d="
M1680.176270,1249.382812 
	C1680.176147,1260.158203 1680.176147,1270.474487 1680.176147,1281.162964 
	C1676.513428,1281.162964 1673.120361,1281.162964 1669.355225,1281.162964 
	C1669.355225,1262.042114 1669.355225,1242.831787 1669.355225,1223.306152 
	C1672.607422,1223.306152 1675.991943,1223.306152 1679.828857,1223.306152 
	C1679.828857,1225.465088 1679.828857,1227.517334 1679.828857,1230.757446 
	C1684.789917,1224.889160 1690.190186,1221.882935 1696.677246,1221.209106 
	C1710.166504,1219.807617 1719.627563,1227.960083 1720.814575,1241.887085 
	C1720.913208,1243.045166 1720.846191,1244.218140 1720.846313,1245.384155 
	C1720.847778,1257.201050 1720.847168,1269.017944 1720.847168,1281.185303 
	C1717.162720,1281.185303 1713.732788,1281.185303 1709.462524,1281.185303 
	C1709.462524,1278.217896 1709.462402,1275.135986 1709.462402,1272.054199 
	C1709.462402,1263.557739 1709.489502,1255.061279 1709.455078,1246.564941 
	C1709.418823,1237.624634 1706.212036,1233.078613 1699.179199,1231.868408 
	C1690.881836,1230.440796 1684.264648,1234.179321 1681.484009,1242.107544 
	C1680.726685,1244.266846 1680.595215,1246.645752 1680.176270,1249.382812 
z"/>
<path fill="#E01907" opacity="1.000000" stroke="none" 
	d="
M557.995850,1273.903320 
	C557.995850,1264.758301 558.003418,1256.098145 557.993896,1247.438110 
	C557.982300,1236.845825 554.007996,1231.984253 545.025513,1231.547119 
	C536.591248,1231.136597 529.500732,1237.345337 528.976929,1246.546143 
	C528.409912,1256.506592 528.651489,1266.512695 528.524536,1276.498657 
	C528.505859,1277.964722 528.399780,1279.429688 528.320190,1281.206543 
	C524.838989,1281.206543 521.580200,1281.206543 517.890381,1281.206543 
	C517.890381,1262.080444 517.890381,1242.874634 517.890381,1223.330933 
	C521.160828,1223.330933 524.540771,1223.330933 528.125244,1223.330933 
	C528.125244,1225.403687 528.125244,1227.370605 528.125244,1228.885498 
	C533.012817,1226.483765 537.668579,1223.138428 542.835693,1221.860352 
	C556.871826,1218.388672 568.415039,1227.148193 568.966919,1241.505859 
	C569.439819,1253.811646 569.136475,1266.147339 569.161316,1278.469849 
	C569.162964,1279.289673 569.035889,1280.109741 568.944519,1281.225586 
	C565.435730,1281.225586 562.020508,1281.225586 557.995850,1281.225586 
	C557.995850,1278.912720 557.995850,1276.650513 557.995850,1273.903320 
z"/>
<path fill="#E11C0A" opacity="1.000000" stroke="none" 
	d="
M1165.026367,1234.082642 
	C1161.715088,1238.889038 1162.211792,1241.834473 1167.038452,1243.723389 
	C1171.649658,1245.528198 1176.625610,1246.377319 1181.348755,1247.928223 
	C1184.632568,1249.006592 1188.014282,1250.157227 1190.909302,1251.979370 
	C1199.496582,1257.384644 1200.698730,1268.792236 1193.727539,1276.145874 
	C1181.122070,1289.442871 1156.391357,1284.343384 1149.727295,1266.544067 
	C1152.803223,1265.229370 1155.913086,1263.900146 1159.234741,1262.480225 
	C1163.326660,1270.050293 1168.934937,1274.597534 1177.821167,1273.119141 
	C1181.976562,1272.427734 1186.054810,1270.871704 1186.572021,1266.292358 
	C1187.082520,1261.773071 1183.248291,1259.661743 1179.493774,1258.458618 
	C1174.283203,1256.788940 1168.837891,1255.820068 1163.688965,1253.997681 
	C1153.218872,1250.292114 1148.978760,1242.718140 1152.021973,1233.704224 
	C1152.594360,1232.008423 1153.455811,1230.283569 1154.604492,1228.928589 
	C1164.870239,1216.818481 1191.298584,1218.950317 1197.055054,1234.998047 
	C1193.935059,1236.317505 1190.786987,1237.648804 1187.696533,1238.955811 
	C1180.443481,1230.519775 1173.818359,1229.049683 1165.026367,1234.082642 
z"/>
<path fill="#E11C0A" opacity="1.000000" stroke="none" 
	d="
M391.436829,1235.344727 
	C388.389709,1236.705200 385.639252,1237.826904 382.948120,1238.924316 
	C377.010498,1231.890015 370.265228,1229.313354 363.731567,1232.338379 
	C361.384766,1233.424805 358.725189,1236.206909 358.411285,1238.514648 
	C358.186096,1240.170288 361.274567,1243.219971 363.492249,1244.078613 
	C369.035431,1246.224609 375.037231,1247.160522 380.650269,1249.157471 
	C390.546173,1252.678223 394.917603,1259.615112 392.977936,1268.511597 
	C392.436798,1270.993774 391.163055,1273.581787 389.514008,1275.514160 
	C377.497559,1289.593994 351.376099,1284.483032 345.035675,1266.518921 
	C347.999664,1265.253784 350.996246,1263.974609 354.370056,1262.534302 
	C355.309448,1263.925171 356.168457,1265.273193 357.102570,1266.567017 
	C361.874054,1273.176147 370.696503,1275.586060 377.420624,1271.684692 
	C379.349823,1270.565308 381.675507,1268.055298 381.658905,1266.202271 
	C381.639862,1264.077515 379.688507,1261.070312 377.738983,1260.054688 
	C373.983765,1258.098877 369.613556,1257.349609 365.546143,1255.960205 
	C361.635681,1254.624390 357.494904,1253.615723 353.964874,1251.579834 
	C344.275146,1245.991211 343.847168,1232.734009 352.864441,1226.096191 
	C362.378082,1219.093018 377.990784,1219.407349 386.770111,1227.212158 
	C389.000793,1229.195312 390.109314,1232.440430 391.436829,1235.344727 
z"/>
<path fill="#E11C0A" opacity="1.000000" stroke="none" 
	d="
M2104.063965,1221.151123 
	C2114.665771,1221.354126 2122.992432,1224.780151 2128.212891,1234.793945 
	C2124.906494,1236.232788 2121.781250,1237.592651 2118.472656,1239.032471 
	C2113.675049,1232.357544 2107.330078,1229.343750 2099.458740,1232.305054 
	C2097.090088,1233.196167 2094.076660,1236.195190 2094.020020,1238.300293 
	C2093.966797,1240.278931 2097.063477,1243.235352 2099.415039,1244.201660 
	C2104.446777,1246.269043 2109.948730,1247.156982 2115.157227,1248.839355 
	C2124.585205,1251.884888 2129.114990,1257.476807 2129.007568,1265.480957 
	C2128.906738,1272.997925 2123.461914,1279.398193 2114.819580,1282.158691 
	C2100.317871,1286.790405 2084.674561,1279.785400 2080.734375,1266.525269 
	C2083.655518,1265.247803 2086.630615,1263.946777 2089.928223,1262.504639 
	C2091.020752,1264.107178 2091.963135,1265.591919 2093.006348,1267.001953 
	C2097.439453,1272.992554 2105.480469,1275.346680 2112.122559,1271.988159 
	C2114.323486,1270.875488 2116.964355,1268.151611 2117.061523,1266.055786 
	C2117.159424,1263.945312 2114.806152,1260.857300 2112.701660,1259.704834 
	C2109.285400,1257.834229 2105.187256,1257.220947 2101.393555,1256.024536 
	C2098.070801,1254.976929 2094.632812,1254.155884 2091.491455,1252.703003 
	C2086.034668,1250.179443 2082.322021,1246.091919 2082.015625,1239.714355 
	C2081.695801,1233.066650 2084.548584,1227.836548 2090.382568,1225.009155 
	C2094.460449,1223.032959 2099.184082,1222.390137 2104.063965,1221.151123 
z"/>
<path fill="#E11C0A" opacity="1.000000" stroke="none" 
	d="
M1058.335815,1277.369141 
	C1046.332886,1285.952881 1030.439575,1285.434814 1020.201965,1276.370972 
	C1009.770874,1267.135864 1006.841919,1249.773560 1013.542053,1236.891968 
	C1019.957458,1224.557983 1033.914307,1218.560425 1047.941895,1222.109497 
	C1055.828369,1224.104858 1062.072876,1229.680664 1065.620117,1238.190308 
	C1062.491699,1239.535400 1059.353027,1240.884888 1056.280151,1242.206055 
	C1046.163940,1230.169312 1036.236938,1228.207397 1027.773071,1236.404541 
	C1018.730713,1245.161865 1019.045898,1260.766235 1028.431274,1268.988770 
	C1036.963989,1276.464355 1047.991455,1274.057983 1056.621460,1262.514038 
	C1059.651978,1263.773315 1062.797241,1265.080200 1067.057861,1266.850586 
	C1063.972534,1270.603760 1061.288696,1273.868408 1058.335815,1277.369141 
z"/>
<path fill="#E11B0A" opacity="1.000000" stroke="none" 
	d="
M1850.822266,1212.002808 
	C1850.822266,1206.551636 1850.822266,1201.599731 1850.822266,1196.405029 
	C1854.561646,1196.405029 1857.825317,1196.405029 1861.650024,1196.405029 
	C1861.650024,1221.106689 1861.650024,1245.794678 1861.650024,1270.962402 
	C1874.253540,1270.962402 1886.314575,1270.962402 1898.606689,1270.962402 
	C1898.606689,1274.540283 1898.606689,1277.642456 1898.606689,1281.145264 
	C1882.907837,1281.145264 1867.204834,1281.145264 1850.822266,1281.145264 
	C1850.822266,1258.284180 1850.822266,1235.393066 1850.822266,1212.002808 
z"/>
<path fill="#E11C0A" opacity="1.000000" stroke="none" 
	d="
M1501.910645,1234.984863 
	C1496.004517,1249.468018 1489.988892,1263.500122 1484.601074,1277.769165 
	C1482.784302,1282.580688 1479.465210,1281.214600 1476.232178,1281.583008 
	C1472.954102,1281.956177 1471.238037,1280.867554 1469.967529,1277.630737 
	C1462.884277,1259.584961 1455.537231,1241.642822 1448.212646,1223.497437 
	C1448.910645,1223.277832 1449.320923,1223.045898 1449.738281,1223.032349 
	C1460.223755,1222.694458 1460.221924,1222.699219 1463.934082,1232.545532 
	C1468.254150,1244.005127 1472.578125,1255.463257 1477.324097,1268.045410 
	C1479.750366,1261.916748 1481.800659,1256.833130 1483.777954,1251.721191 
	C1486.829712,1243.831177 1490.106323,1236.011841 1492.739258,1227.982788 
	C1494.067505,1223.931885 1496.074219,1222.345459 1500.195801,1222.947388 
	C1501.979858,1223.207886 1503.833374,1222.991089 1506.700806,1222.991089 
	C1505.014771,1227.205933 1503.530640,1230.916016 1501.910645,1234.984863 
z"/>
<path fill="#E11B0A" opacity="1.000000" stroke="none" 
	d="
M1995.243164,1236.346191 
	C1989.397217,1250.690796 1983.625244,1264.649780 1978.062744,1278.691772 
	C1977.043823,1281.264038 1975.462646,1282.014893 1973.142456,1281.496826 
	C1970.235596,1280.847778 1966.414185,1283.618042 1964.540894,1278.938843 
	C1957.148315,1260.472412 1949.635010,1242.054199 1942.172607,1223.633057 
	C1942.662598,1223.343750 1942.902832,1223.081299 1943.152588,1223.072021 
	C1954.112427,1222.659546 1954.093994,1222.669312 1957.999634,1233.016846 
	C1962.268066,1244.325317 1966.575317,1255.619141 1971.295166,1268.050293 
	C1974.720581,1259.271851 1977.751587,1251.546997 1980.749023,1243.808960 
	C1982.846069,1238.394775 1985.142944,1233.040039 1986.881470,1227.511230 
	C1988.025269,1223.873779 1989.886230,1222.410156 1993.654175,1222.940063 
	C1995.712524,1223.229614 1997.844971,1222.991699 2000.668579,1222.991699 
	C1998.728271,1227.768555 1997.058838,1231.878662 1995.243164,1236.346191 
z"/>
<path fill="#E01908" opacity="1.000000" stroke="none" 
	d="
M1588.064209,1222.995850 
	C1589.681396,1222.995728 1590.821777,1222.995728 1592.405762,1222.995728 
	C1592.405762,1217.030396 1592.405762,1211.441406 1592.405762,1205.511841 
	C1596.225464,1205.511841 1599.594116,1205.511841 1603.381348,1205.511841 
	C1603.381348,1211.215698 1603.381348,1216.831909 1603.381348,1222.824951 
	C1608.232788,1222.824951 1612.681641,1222.824951 1617.486084,1222.824951 
	C1617.486084,1226.259644 1617.486084,1229.324951 1617.486084,1233.071777 
	C1613.068481,1233.071777 1608.524170,1233.071777 1603.848633,1233.071777 
	C1603.848633,1244.200928 1603.526367,1254.674316 1603.972412,1265.114868 
	C1604.230957,1271.169556 1608.029053,1272.877319 1615.732056,1271.155029 
	C1616.847778,1274.167603 1617.984741,1277.238037 1619.119019,1280.300537 
	C1604.108521,1286.987793 1591.857300,1278.205933 1592.381592,1265.391846 
	C1592.809692,1254.926880 1592.468628,1244.430420 1592.468628,1233.495117 
	C1588.961182,1233.288452 1585.757080,1233.099609 1582.367920,1232.899902 
	C1582.367920,1229.656738 1582.367920,1226.707031 1582.367920,1222.995850 
	C1584.091431,1222.995850 1585.839355,1222.995850 1588.064209,1222.995850 
z"/>
<path fill="#E01806" opacity="1.000000" stroke="none" 
	d="
M1365.167603,1209.010498 
	C1365.167603,1233.304688 1365.167603,1257.100464 1365.167603,1281.209595 
	C1361.444946,1281.209595 1358.033569,1281.209595 1354.306885,1281.209595 
	C1354.306885,1252.986328 1354.306885,1224.804321 1354.306885,1196.411377 
	C1357.880127,1196.411377 1361.279785,1196.411377 1365.167603,1196.411377 
	C1365.167603,1200.601440 1365.167603,1204.556641 1365.167603,1209.010498 
z"/>
<path fill="#E11C0A" opacity="1.000000" stroke="none" 
	d="
M1636.820557,1241.000732 
	C1636.820557,1234.860718 1636.820557,1229.220337 1636.820557,1223.286377 
	C1640.489502,1223.286377 1643.890747,1223.286377 1647.573730,1223.286377 
	C1647.573730,1242.578247 1647.573730,1261.791748 1647.573730,1281.274414 
	C1644.093872,1281.274414 1640.826782,1281.274414 1636.820557,1281.274414 
	C1636.820557,1267.977417 1636.820557,1254.739014 1636.820557,1241.000732 
z"/>
<path fill="#E11C0A" opacity="1.000000" stroke="none" 
	d="
M418.697998,1281.532959 
	C415.778625,1281.540283 413.311951,1281.540283 410.499176,1281.540283 
	C410.499176,1262.002319 410.499176,1242.845581 410.499176,1223.338501 
	C413.790710,1223.338501 417.171936,1223.338501 421.179443,1223.338501 
	C421.179443,1226.176392 421.179443,1229.098999 421.179443,1232.021729 
	C421.179413,1246.968384 421.239136,1261.915771 421.090576,1276.860962 
	C421.075073,1278.422119 419.826935,1279.971069 418.697998,1281.532959 
z"/>
<path fill="#E01705" opacity="1.000000" stroke="none" 
	d="
M1916.421509,1223.432495 
	C1920.052490,1223.091431 1923.348633,1223.091431 1926.901367,1223.091431 
	C1926.901367,1242.568726 1926.901367,1261.776855 1926.901367,1281.232056 
	C1923.286865,1281.232056 1919.880615,1281.232056 1916.086548,1281.232056 
	C1916.086548,1261.989746 1916.086548,1242.881714 1916.421509,1223.432495 
z"/>
<path fill="#E01705" opacity="1.000000" stroke="none" 
	d="
M592.175781,1223.005127 
	C595.273560,1223.000610 597.895630,1223.000610 600.756348,1223.000610 
	C600.756348,1242.551514 600.756348,1261.745850 600.756348,1281.209717 
	C597.239502,1281.209717 593.852966,1281.209717 589.999878,1281.209717 
	C589.999878,1272.152466 589.999878,1263.212402 589.999878,1254.272461 
	C589.999878,1245.132568 589.933350,1235.991577 590.075439,1226.853882 
	C590.095459,1225.564331 591.133301,1224.290771 592.175781,1223.005127 
z"/>
<path fill="#E11C0A" opacity="1.000000" stroke="none" 
	d="
M1215.542725,1279.368286 
	C1212.632935,1275.099365 1212.697876,1271.197266 1216.353638,1267.948730 
	C1219.600952,1265.063232 1223.471558,1264.994019 1226.853638,1267.602173 
	C1230.722656,1270.586060 1231.031860,1274.831055 1228.777222,1278.814453 
	C1225.683716,1284.279785 1222.051636,1289.440552 1218.487061,1294.985962 
	C1216.562134,1293.760986 1214.911621,1292.710571 1213.008179,1291.499268 
	C1215.040894,1288.259766 1216.953979,1285.211304 1218.961304,1282.012207 
	C1217.824585,1281.156250 1216.810059,1280.392334 1215.542725,1279.368286 
z"/>
<path fill="#E11C0A" opacity="1.000000" stroke="none" 
	d="
M421.971344,1208.012207 
	C418.666840,1211.424683 414.766510,1212.440918 411.543304,1209.573853 
	C409.552856,1207.803223 407.883850,1203.965820 408.403381,1201.560059 
	C408.919220,1199.171631 412.076019,1196.398438 414.602264,1195.698364 
	C416.657043,1195.129028 420.744965,1196.728149 421.676636,1198.530884 
	C422.955811,1201.006226 422.105560,1204.582153 421.971344,1208.012207 
z"/>
<path fill="#E11C0A" opacity="1.000000" stroke="none" 
	d="
M1645.867432,1210.154785 
	C1641.396240,1211.905273 1637.874146,1211.041504 1635.609009,1207.248535 
	C1633.641602,1203.954346 1633.916870,1200.531006 1636.736084,1197.672485 
	C1639.366455,1195.005615 1642.510742,1194.539307 1645.851929,1196.149048 
	C1651.278564,1198.763184 1651.431641,1205.408081 1645.867432,1210.154785 
z"/>
<path fill="#E11C0A" opacity="1.000000" stroke="none" 
	d="
M1927.396606,1208.451416 
	C1924.026978,1211.572876 1920.175415,1212.263184 1917.249390,1209.513550 
	C1915.307495,1207.688599 1913.856567,1203.931763 1914.293945,1201.404785 
	C1914.683594,1199.154297 1917.731567,1196.237183 1920.046631,1195.762451 
	C1922.383667,1195.283081 1925.932129,1196.781128 1927.745728,1198.608032 
	C1930.412598,1201.294312 1929.983643,1204.989868 1927.396606,1208.451416 
z"/>
<path fill="#E11C0A" opacity="1.000000" stroke="none" 
	d="
M596.627075,1195.344482 
	C600.682007,1196.517822 603.619507,1198.720215 602.995239,1202.753418 
	C602.593201,1205.350952 601.040466,1208.743774 598.974426,1209.838745 
	C596.877869,1210.949951 592.647400,1210.671387 590.940430,1209.181152 
	C589.018921,1207.503784 587.900452,1203.691162 588.181152,1200.989014 
	C588.610718,1196.853394 592.188538,1195.273682 596.627075,1195.344482 
z"/>
<path fill="#FFFEFE" opacity="1.000000" stroke="none" 
	d="
M551.086609,999.072388 
	C537.275024,992.456726 529.427917,981.903442 529.099548,966.848938 
	C528.669250,947.125671 542.863770,937.455139 557.074097,927.704407 
	C575.765930,947.125427 594.294189,966.376404 613.102356,985.918274 
	C594.583679,1000.243652 574.903137,1008.253296 551.086609,999.072388 
z"/>
<path fill="#FFFDFD" opacity="1.000000" stroke="none" 
	d="
M596.921387,863.919922 
	C588.881470,869.530396 581.097961,874.891541 572.765625,880.630676 
	C563.385864,865.911987 554.804810,851.907349 557.984009,834.230408 
	C560.548462,819.971741 573.648193,811.761719 589.750854,813.873657 
	C603.159729,815.632324 611.779358,825.805664 610.795959,839.019165 
	C610.034119,849.256592 604.730957,857.117310 596.921387,863.919922 
z"/>
<path fill="#FFFEFE" opacity="1.000000" stroke="none" 
	d="
M1282.037354,984.994751 
	C1267.645020,1001.502869 1247.947510,1007.027039 1228.716064,1000.179626 
	C1209.741089,993.423462 1197.160400,975.396362 1196.524658,954.051819 
	C1195.816406,930.273315 1206.861328,911.184387 1226.038574,903.042847 
	C1256.042603,890.304871 1290.083008,911.106995 1293.061279,943.857117 
	C1294.425415,958.858765 1291.645020,972.622192 1282.037354,984.994751 
z"/>
<path fill="#FEF9F9" opacity="1.000000" stroke="none" 
	d="
M1873.999756,927.544312 
	C1853.021973,927.544250 1832.544189,927.544250 1812.043335,927.544250 
	C1813.193359,914.953552 1828.229858,895.619019 1851.643677,894.096130 
	C1875.495117,892.544678 1894.537109,905.621765 1898.801025,927.544373 
	C1890.604492,927.544373 1882.552124,927.544373 1873.999756,927.544312 
z"/>
<path fill="#FFFEFE" opacity="1.000000" stroke="none" 
	d="
M1419.121338,1001.885681 
	C1407.286621,989.626709 1410.412354,972.101746 1425.646729,964.179932 
	C1436.818237,958.370728 1448.861816,958.479858 1460.746948,960.495911 
	C1468.192993,961.759033 1475.383179,964.665710 1482.575073,967.160828 
	C1483.788574,967.581848 1485.300049,969.728088 1485.200928,970.958557 
	C1483.901367,987.087646 1475.739380,998.923096 1461.204590,1005.642212 
	C1446.872681,1012.267578 1432.557861,1012.446167 1419.121338,1001.885681 
z"/>
<path fill="#FFFDFD" opacity="1.000000" stroke="none" 
	d="
M1348.055664,123.338676 
	C1348.395508,139.104736 1340.006470,148.998642 1324.918335,151.108154 
	C1304.051758,154.025558 1290.617310,167.941238 1291.267334,186.456131 
	C1291.432739,191.171295 1292.896729,195.840897 1293.915771,201.352066 
	C1291.902588,199.869034 1290.098267,198.694733 1288.467773,197.314926 
	C1272.017944,183.393448 1265.425171,159.435562 1272.320923,138.791824 
	C1279.343384,117.768768 1299.051392,102.334969 1320.512817,101.051903 
	C1334.932617,100.189819 1345.320312,108.438362 1348.055664,123.338676 
M1334.298950,119.458061 
	C1330.162842,114.125267 1325.341797,112.469627 1320.070312,114.571693 
	C1315.271606,116.485260 1312.594727,120.993774 1313.002686,126.475182 
	C1313.377686,131.515121 1317.081543,135.498871 1322.436890,136.581085 
	C1330.527466,138.216034 1339.100830,129.545227 1334.298950,119.458061 
z"/>
<path fill="#FEF9F9" opacity="1.000000" stroke="none" 
	d="
M1314.887695,192.899521 
	C1312.055786,186.210571 1313.326294,180.912308 1318.259644,177.743225 
	C1322.974854,174.714310 1329.030273,175.488388 1332.717163,179.591400 
	C1336.356201,183.641159 1336.416870,189.823944 1333.003296,194.225800 
	C1328.938965,199.466660 1319.292236,199.971344 1314.887695,192.899521 
z"/>
<path fill="#FFFDFD" opacity="1.000000" stroke="none" 
	d="
M705.839355,1237.923706 
	C711.127930,1231.994385 717.507019,1230.145630 724.587463,1232.294922 
	C731.923218,1234.521729 735.782471,1240.156006 737.248657,1247.556763 
	C739.828796,1260.579956 732.340332,1272.378540 720.989990,1273.102051 
	C707.948547,1273.933228 698.373596,1261.662476 701.477661,1247.688232 
	C702.210876,1244.387207 704.201782,1241.365479 705.839355,1237.923706 
z"/>
<path fill="#FFFDFD" opacity="1.000000" stroke="none" 
	d="
M459.910553,1233.566772 
	C472.612701,1228.378418 484.350647,1234.822266 485.925842,1248.022095 
	C486.474426,1252.619385 486.012878,1257.771118 484.429871,1262.089478 
	C481.923828,1268.925537 476.466187,1272.932007 468.792999,1273.152100 
	C461.167206,1273.370850 455.767212,1269.746216 452.268890,1263.239014 
	C446.714142,1252.906738 449.909058,1240.346558 459.910553,1233.566772 
z"/>
<path fill="#FFFDFD" opacity="1.000000" stroke="none" 
	d="
M1771.973145,1232.433594 
	C1781.085083,1236.722656 1785.161621,1244.096313 1784.438965,1254.493652 
	C1783.831787,1263.228149 1779.045044,1270.033447 1771.651978,1272.309082 
	C1765.330566,1274.254761 1759.526123,1273.215332 1754.537476,1268.663330 
	C1747.637085,1262.366699 1745.698975,1250.953369 1750.001465,1242.037598 
	C1754.029175,1233.691284 1761.308472,1230.392944 1771.973145,1232.433594 
z"/>
<path fill="#FFFEFE" opacity="1.000000" stroke="none" 
	d="
M246.663086,1254.406982 
	C241.698776,1264.359497 233.694550,1269.505981 223.248474,1270.448730 
	C216.702362,1271.039551 210.059540,1270.558716 203.232056,1270.558716 
	C203.232056,1249.562134 203.232056,1228.530029 203.232056,1207.517700 
	C238.534149,1202.270996 258.054779,1223.182007 246.663086,1254.406982 
z"/>
<path fill="#FFFDFD" opacity="1.000000" stroke="none" 
	d="
M887.095764,1267.881836 
	C880.673706,1260.234863 880.046326,1251.825928 883.178162,1243.240967 
	C885.765991,1236.147095 891.180664,1231.947876 899.007751,1231.554565 
	C906.385864,1231.183594 912.786255,1235.243652 916.076172,1242.239624 
	C923.193726,1257.375366 913.208374,1274.564209 897.963440,1272.893799 
	C894.293823,1272.491821 890.875488,1269.795410 887.095764,1267.881836 
z"/>
<path fill="#FFFDFD" opacity="1.000000" stroke="none" 
	d="
M1113.947144,1245.154175 
	C1106.489380,1245.144165 1099.521729,1245.136719 1092.553955,1245.115601 
	C1092.230957,1245.114624 1091.908203,1244.991455 1091.585938,1244.922607 
	C1092.545776,1237.215332 1098.576660,1231.864380 1106.666016,1231.540405 
	C1115.952515,1231.168579 1121.911499,1235.735352 1123.776489,1245.154175 
	C1120.603394,1245.154175 1117.520264,1245.154175 1113.947144,1245.154175 
z"/>
<path fill="#FEF9F9" opacity="1.000000" stroke="none" 
	d="
M1421.698364,1245.167114 
	C1412.292603,1245.167114 1403.350708,1245.167114 1394.408447,1245.167114 
	C1394.501099,1237.083740 1403.172119,1231.363159 1410.028198,1231.416870 
	C1419.019043,1231.487183 1424.960571,1236.066406 1426.508179,1244.938599 
	C1425.034180,1245.016113 1423.598267,1245.091675 1421.698364,1245.167114 
z"/>
<path fill="#FEF9F9" opacity="1.000000" stroke="none" 
	d="
M2022.201904,1244.433350 
	C2026.371216,1232.956299 2035.656006,1228.616821 2045.863647,1232.915161 
	C2050.803955,1234.995483 2053.469482,1238.610107 2054.548096,1244.841919 
	C2043.781372,1244.841919 2033.045532,1244.841919 2022.201904,1244.433350 
z"/>
<path fill="#FEF9F9" opacity="1.000000" stroke="none" 
	d="
M293.400299,1234.225098 
	C305.201050,1228.059570 316.905334,1232.882812 318.947021,1244.780273 
	C308.237640,1244.780273 297.587982,1244.780273 285.119934,1244.780273 
	C288.248108,1240.715210 290.667542,1237.571167 293.400299,1234.225098 
z"/>
<path fill="#FEF9F9" opacity="1.000000" stroke="none" 
	d="
M969.263123,1252.599731 
	C973.368225,1253.241333 977.114441,1253.807495 980.771606,1254.727661 
	C983.696716,1255.463745 984.462830,1257.390015 983.575623,1260.421509 
	C981.281189,1268.261841 973.003662,1274.214600 965.144104,1273.375366 
	C959.430603,1272.765259 955.090332,1269.145752 954.568848,1264.556152 
	C954.051697,1260.004517 957.019165,1255.927856 962.584045,1253.963013 
	C964.580383,1253.258057 966.766418,1253.090210 969.263123,1252.599731 
z"/>
<path fill="#FEF9F9" opacity="1.000000" stroke="none" 
	d="
M1527.884277,1262.307983 
	C1530.266724,1259.316162 1532.134888,1255.726685 1535.049316,1254.346680 
	C1541.257935,1251.407227 1547.996704,1251.948608 1554.213501,1254.948853 
	C1555.529419,1255.583740 1556.970947,1257.914429 1556.826416,1259.304810 
	C1555.837646,1268.813477 1543.451660,1276.093994 1534.610840,1272.514771 
	C1530.301880,1270.770386 1527.396118,1267.843750 1527.884277,1262.307983 
z"/>
<path fill="#E11C0A" opacity="1.000000" stroke="none" 
	d="
M1334.513306,119.776596 
	C1339.100830,129.545227 1330.527466,138.216034 1322.436890,136.581085 
	C1317.081543,135.498871 1313.377686,131.515121 1313.002686,126.475182 
	C1312.594727,120.993774 1315.271606,116.485260 1320.070312,114.571693 
	C1325.341797,112.469627 1330.162842,114.125267 1334.513306,119.776596 
z"/>
</svg>